<svg viewBox="0 0 200 200" xmlns="http://www.w3.org/2000/svg" width="400px" height="400px">
  <path fill="#343ec78e" d="M37,-65C44.6,-59.6,45.2,-43.1,51.2,-30.3C57.2,-17.6,68.6,-8.8,75,3.7C81.5,16.3,83.1,32.6,74.1,40.1C65.1,47.6,45.5,46.2,31.4,46.8C17.3,47.4,8.6,50,-3.6,56.2C-15.8,62.4,-31.5,72.2,-41.4,69.1C-51.2,66,-55,50,-61.7,36.3C-68.4,22.7,-77.8,11.3,-75.4,1.4C-72.9,-8.5,-58.4,-16.9,-52.1,-31.2C-45.8,-45.4,-47.6,-65.5,-40.2,-71C-32.9,-76.6,-16.5,-67.6,-0.9,-66.1C14.7,-64.6,29.3,-70.4,37,-65Z" transform="translate(100 100)" />
</svg>