<?xml version="1.0" encoding="iso-8859-1"?>
<!-- Uploaded to: SVG Repo, www.svgrepo.com, Generator: SVG Repo Mixer Tools -->
<svg version="1.1" id="Layer_1" xmlns="http://www.w3.org/2000/svg" xmlns:xlink="http://www.w3.org/1999/xlink" 
	 viewBox="0 0 512.003 400.003" xml:space="preserve">
<path style="fill:#00E891;" d="M474.041,39.582H37.959C16.994,39.582,0,56.576,0,77.54v166.109c0,19.83,15.42,36.719,35.238,37.424
	c20.806,0.74,37.905-15.907,37.905-36.547v-81.148c0-19.83,15.42-36.719,35.238-37.424c20.806-0.74,37.905,15.907,37.905,36.547
	V356.97c0,19.83,15.42,36.719,35.238,37.424c20.806,0.74,37.905-15.907,37.905-36.547V193.748c0-19.83,15.421-36.719,35.238-37.424
	c20.806-0.74,37.905,15.907,37.905,36.547v37.573c0,19.83,15.421,36.719,35.238,37.424c20.806,0.74,37.905-15.907,37.905-36.547
	v-81.148c0-19.83,15.42-36.719,35.238-37.424c20.806-0.74,37.905,15.907,37.905,36.547v133.966c0,19.83,15.42,36.719,35.238,37.424
	c20.806,0.74,37.905-15.907,37.905-36.547V77.54C512,56.576,495.004,39.582,474.041,39.582z"/>
<path style="fill:#00E891;" d="M474.041,39.582H37.959C16.994,39.582,0,56.576,0,77.54v37.623C0,94.2,16.994,77.205,37.959,77.205
	h436.083C495.006,77.205,512,94.2,512,115.163V77.54C512,56.576,495.004,39.582,474.041,39.582z"/>
</svg>