<svg xmlns="http://www.w3.org/2000/svg" version="1.1" xmlns:xlink="http://www.w3.org/1999/xlink" xmlns:svgjs="http://svgjs.com/svgjs" width="1440" height="560" preserveAspectRatio="none" viewBox="0 0 1440 560"><g mask="url(&quot;#SvgjsMask1157&quot;)" fill="none"><rect width="1440" height="560" x="0" y="0" fill="url(#SvgjsLinearGradient1158)"></rect><path d="M237.5110152342628 441.4299379705457L371.7270487636863 498.4012641353299 428.69837492847046 364.1852306059063 294.48234139904696 307.2139044411222z" fill="rgba(28, 83, 142, 0.4)" class="triangle-float3"></path><path d="M1444.677,221.828C1495.607,222.701,1542.615,194.946,1568.441,151.042C1594.64,106.503,1594.918,52.437,1571.378,6.437C1545.384,-44.359,1501.717,-92.344,1444.677,-90.806C1389.253,-89.311,1353.706,-36.81,1329.286,12.967C1308.207,55.934,1304.908,105.03,1328.052,146.921C1351.999,190.266,1395.164,220.979,1444.677,221.828" fill="rgba(28, 83, 142, 0.4)" class="triangle-float1"></path><path d="M935.384655810816 235.7672206387628L836.5740713033045 237.39777006106678 879.7679468320275 312.211757052621z" fill="rgba(28, 83, 142, 0.4)" class="triangle-float3"></path><path d="M1043.8825157705107 480.62953050305106L1089.1655911629107 388.00960066391235 999.1660372984935 392.7262774184109z" fill="rgba(28, 83, 142, 0.4)" class="triangle-float2"></path><path d="M1474.947,732.331C1529.92,730.279,1574.883,690.289,1598.693,640.698C1619.549,597.26,1605.633,549.395,1583.275,506.711C1558.58,459.566,1528.13,406.453,1474.947,404.453C1419.658,402.374,1379.008,449.976,1351.527,497.997C1324.276,545.616,1308.531,602.029,1334.098,650.573C1361.212,702.053,1416.803,734.501,1474.947,732.331" fill="rgba(28, 83, 142, 0.4)" class="triangle-float2"></path><path d="M486.882,466.719C517.766,465.651,542.514,443.104,556.691,415.646C569.666,390.518,567.167,361.613,554.101,336.533C539.777,309.038,517.884,281.913,486.882,281.65C455.577,281.384,433.069,308.126,417.655,335.374C402.538,362.096,393.859,393.624,408.174,420.784C423.355,449.586,454.343,467.845,486.882,466.719" fill="rgba(28, 83, 142, 0.4)" class="triangle-float1"></path><path d="M648.988428501115 267.24689864756317L567.3757158990735 146.25107640932868 446.37989366083906 227.86378901137016 527.9926062628805 348.85961124960465z" fill="rgba(28, 83, 142, 0.4)" class="triangle-float1"></path><path d="M1317.183,275.01C1363.324,276.922,1400.309,241.307,1423.364,201.293C1446.377,161.352,1456.809,112.605,1433.758,72.685C1410.709,32.768,1363.265,16.35,1317.183,17.403C1273.08,18.411,1229.947,38.728,1209.488,77.812C1190.212,114.636,1205.3,156.604,1225.222,193.083C1246.312,231.7,1273.22,273.188,1317.183,275.01" fill="rgba(28, 83, 142, 0.4)" class="triangle-float2"></path></g><defs><mask id="SvgjsMask1157"><rect width="1440" height="560" fill="#ffffff"></rect></mask><linearGradient x1="15.28%" y1="-39.29%" x2="84.72%" y2="139.29%" gradientUnits="userSpaceOnUse" id="SvgjsLinearGradient1158"><stop stop-color="#0e2a47" offset="0"></stop><stop stop-color="rgba(0, 54, 124, 1)" offset="1"></stop></linearGradient><style>
            @keyframes float1 {
                0%{transform: translate(0, 0)}
                50%{transform: translate(-10px, 0)}
                100%{transform: translate(0, 0)}
            }

            .triangle-float1 {
                animation: float1 5s infinite;
            }

            @keyframes float2 {
                0%{transform: translate(0, 0)}
                50%{transform: translate(-5px, -5px)}
                100%{transform: translate(0, 0)}
            }

            .triangle-float2 {
                animation: float2 4s infinite;
            }

            @keyframes float3 {
                0%{transform: translate(0, 0)}
                50%{transform: translate(0, -10px)}
                100%{transform: translate(0, 0)}
            }

            .triangle-float3 {
                animation: float3 6s infinite;
            }
        </style></defs></svg>