<svg xmlns="http://www.w3.org/2000/svg" version="1.1" xmlns:xlink="http://www.w3.org/1999/xlink" xmlns:svgjs="http://svgjs.com/svgjs" width="1440" height="600" preserveAspectRatio="none" viewBox="0 0 1440 600"><g mask="url(&quot;#SvgjsMask1082&quot;)" fill="none"><rect width="1440" height="600" x="0" y="0" fill="#0e2a47"></rect><g mask="url(&quot;#SvgjsMask1083&quot;)"><path d="M-12.5 312.5L12.5 312.5L37.5 312.5L62.5 312.5L87.5 312.5" stroke="rgba(209, 221, 17, 1)" stroke-width="4.17"></path><path d="M81.25 312.5 a6.25 6.25 0 1 0 12.5 0 a6.25 6.25 0 1 0 -12.5 0z" fill="rgba(209, 221, 17, 1)"></path><path d="M137.5 287.5L162.5 262.5L187.5 262.5L212.5 262.5M387.5 262.5L412.5 237.5L437.5 237.5L462.5 237.5L487.5 237.5M337.5 287.5L362.5 287.5M362.5 262.5L387.5 237.5M-12.5 287.5L12.5 287.5L37.5 287.5L62.5 287.5L87.5 287.5L112.5 287.5L137.5 287.5L162.5 287.5L187.5 287.5L212.5 287.5L237.5 287.5L262.5 287.5L287.5 287.5L312.5 287.5L337.5 287.5L362.5 262.5L387.5 262.5L412.5 262.5" stroke="rgba(209, 221, 17, 1)" stroke-width="4.17"></path><path d="M406.25 262.5 a6.25 6.25 0 1 0 12.5 0 a6.25 6.25 0 1 0 -12.5 0zM206.25 262.5 a6.25 6.25 0 1 0 12.5 0 a6.25 6.25 0 1 0 -12.5 0zM481.25 237.5 a6.25 6.25 0 1 0 12.5 0 a6.25 6.25 0 1 0 -12.5 0zM356.25 287.5 a6.25 6.25 0 1 0 12.5 0 a6.25 6.25 0 1 0 -12.5 0zM381.25 237.5 a6.25 6.25 0 1 0 12.5 0 a6.25 6.25 0 1 0 -12.5 0z" fill="rgba(209, 221, 17, 1)"></path><path d="M212.5 337.5L237.5 312.5M162.5 337.5L187.5 312.5L212.5 312.5M287.5 337.5L312.5 312.5L337.5 312.5M362.5 337.5L387.5 337.5M-12.5 337.5L12.5 337.5L37.5 337.5L62.5 337.5L87.5 337.5L112.5 337.5L137.5 337.5L162.5 337.5L187.5 337.5L212.5 337.5L237.5 337.5L262.5 337.5L287.5 337.5L312.5 337.5L337.5 337.5L362.5 337.5L387.5 312.5L412.5 312.5" stroke="rgba(209, 221, 17, 1)" stroke-width="4.17"></path><path d="M406.25 312.5 a6.25 6.25 0 1 0 12.5 0 a6.25 6.25 0 1 0 -12.5 0zM231.25 312.5 a6.25 6.25 0 1 0 12.5 0 a6.25 6.25 0 1 0 -12.5 0zM206.25 312.5 a6.25 6.25 0 1 0 12.5 0 a6.25 6.25 0 1 0 -12.5 0zM331.25 312.5 a6.25 6.25 0 1 0 12.5 0 a6.25 6.25 0 1 0 -12.5 0zM381.25 337.5 a6.25 6.25 0 1 0 12.5 0 a6.25 6.25 0 1 0 -12.5 0z" fill="rgba(209, 221, 17, 1)"></path><path d="M237.5 187.5L262.5 212.5L287.5 212.5L312.5 212.5M62.5 237.5L87.5 237.5M112.5 212.5L137.5 237.5L162.5 237.5L187.5 237.5L212.5 237.5M-12.5 262.5L12.5 262.5L37.5 262.5L62.5 237.5L87.5 212.5L112.5 212.5L137.5 212.5L162.5 212.5L187.5 187.5L212.5 187.5L237.5 187.5L262.5 187.5" stroke="rgba(209, 221, 17, 1)" stroke-width="4.17"></path><path d="M256.25 187.5 a6.25 6.25 0 1 0 12.5 0 a6.25 6.25 0 1 0 -12.5 0zM306.25 212.5 a6.25 6.25 0 1 0 12.5 0 a6.25 6.25 0 1 0 -12.5 0zM81.25 237.5 a6.25 6.25 0 1 0 12.5 0 a6.25 6.25 0 1 0 -12.5 0zM206.25 237.5 a6.25 6.25 0 1 0 12.5 0 a6.25 6.25 0 1 0 -12.5 0z" fill="rgba(209, 221, 17, 1)"></path><path d="M-12.5 362.5L12.5 362.5" stroke="#3a7cc3" stroke-width="4.17"></path><path d="M6.25 362.5 a6.25 6.25 0 1 0 12.5 0 a6.25 6.25 0 1 0 -12.5 0z" fill="#3a7cc3"></path><path d="M262.5 162.5L287.5 137.5L312.5 137.5M137.5 162.5L162.5 187.5M337.5 162.5L362.5 137.5L387.5 137.5L412.5 137.5L437.5 137.5L462.5 137.5M212.5 162.5L237.5 137.5L262.5 137.5M-12.5 237.5L12.5 237.5L37.5 237.5L62.5 212.5L87.5 187.5L112.5 162.5L137.5 162.5L162.5 162.5L187.5 162.5L212.5 162.5L237.5 162.5L262.5 162.5L287.5 162.5L312.5 162.5L337.5 162.5L362.5 162.5L387.5 162.5" stroke="#3a7cc3" stroke-width="4.17"></path><path d="M381.25 162.5 a6.25 6.25 0 1 0 12.5 0 a6.25 6.25 0 1 0 -12.5 0zM306.25 137.5 a6.25 6.25 0 1 0 12.5 0 a6.25 6.25 0 1 0 -12.5 0zM156.25 187.5 a6.25 6.25 0 1 0 12.5 0 a6.25 6.25 0 1 0 -12.5 0zM456.25 137.5 a6.25 6.25 0 1 0 12.5 0 a6.25 6.25 0 1 0 -12.5 0zM256.25 137.5 a6.25 6.25 0 1 0 12.5 0 a6.25 6.25 0 1 0 -12.5 0z" fill="#3a7cc3"></path><path d="M412.5 412.5L437.5 387.5L462.5 387.5M162.5 362.5L187.5 387.5L212.5 387.5L237.5 387.5L262.5 387.5L287.5 387.5M112.5 362.5L137.5 387.5M587.5 437.5L612.5 412.5L637.5 412.5M487.5 412.5L512.5 387.5L537.5 362.5L562.5 362.5M287.5 362.5L312.5 362.5L337.5 362.5L362.5 362.5M-12.5 387.5L12.5 387.5L37.5 387.5L62.5 387.5L87.5 362.5L112.5 362.5L137.5 362.5L162.5 362.5L187.5 362.5L212.5 362.5L237.5 362.5L262.5 362.5L287.5 362.5L312.5 387.5L337.5 387.5L362.5 412.5L387.5 412.5L412.5 412.5L437.5 412.5L462.5 412.5L487.5 412.5L512.5 412.5L537.5 412.5L562.5 437.5L587.5 437.5L612.5 437.5" stroke="rgba(209, 221, 17, 1)" stroke-width="4.17"></path><path d="M606.25 437.5 a6.25 6.25 0 1 0 12.5 0 a6.25 6.25 0 1 0 -12.5 0zM456.25 387.5 a6.25 6.25 0 1 0 12.5 0 a6.25 6.25 0 1 0 -12.5 0zM281.25 387.5 a6.25 6.25 0 1 0 12.5 0 a6.25 6.25 0 1 0 -12.5 0zM131.25 387.5 a6.25 6.25 0 1 0 12.5 0 a6.25 6.25 0 1 0 -12.5 0zM631.25 412.5 a6.25 6.25 0 1 0 12.5 0 a6.25 6.25 0 1 0 -12.5 0zM556.25 362.5 a6.25 6.25 0 1 0 12.5 0 a6.25 6.25 0 1 0 -12.5 0zM356.25 362.5 a6.25 6.25 0 1 0 12.5 0 a6.25 6.25 0 1 0 -12.5 0z" fill="rgba(209, 221, 17, 1)"></path><path d="M162.5 112.5L187.5 137.5L212.5 137.5M337.5 112.5L362.5 87.5M137.5 137.5L162.5 137.5M312.5 112.5L337.5 87.5M-12.5 212.5L12.5 212.5L37.5 212.5L62.5 187.5L87.5 162.5L112.5 137.5L137.5 137.5L162.5 112.5L187.5 112.5L212.5 112.5L237.5 112.5L262.5 112.5L287.5 112.5L312.5 112.5L337.5 112.5L362.5 112.5L387.5 112.5L412.5 112.5L437.5 112.5L462.5 112.5" stroke="#3a7cc3" stroke-width="4.17"></path><path d="M456.25 112.5 a6.25 6.25 0 1 0 12.5 0 a6.25 6.25 0 1 0 -12.5 0zM206.25 137.5 a6.25 6.25 0 1 0 12.5 0 a6.25 6.25 0 1 0 -12.5 0zM356.25 87.5 a6.25 6.25 0 1 0 12.5 0 a6.25 6.25 0 1 0 -12.5 0zM156.25 137.5 a6.25 6.25 0 1 0 12.5 0 a6.25 6.25 0 1 0 -12.5 0zM331.25 87.5 a6.25 6.25 0 1 0 12.5 0 a6.25 6.25 0 1 0 -12.5 0z" fill="#3a7cc3"></path><path d="M562.5 462.5L587.5 487.5L612.5 512.5L637.5 512.5L662.5 512.5M437.5 437.5L462.5 462.5L487.5 462.5M587.5 462.5L612.5 462.5M187.5 412.5L212.5 437.5L237.5 437.5L262.5 437.5L287.5 437.5L312.5 437.5L337.5 437.5L362.5 462.5M112.5 412.5L137.5 437.5L162.5 437.5L187.5 437.5L212.5 462.5L237.5 462.5M-12.5 412.5L12.5 412.5L37.5 412.5L62.5 412.5L87.5 412.5L112.5 412.5L137.5 412.5L162.5 412.5L187.5 412.5L212.5 412.5L237.5 412.5L262.5 412.5L287.5 412.5L312.5 412.5L337.5 412.5L362.5 437.5L387.5 437.5L412.5 437.5L437.5 437.5L462.5 437.5L487.5 437.5L512.5 437.5L537.5 437.5L562.5 462.5L587.5 462.5L612.5 487.5L637.5 487.5L662.5 462.5" stroke="#3a7cc3" stroke-width="4.17"></path><path d="M656.25 462.5 a6.25 6.25 0 1 0 12.5 0 a6.25 6.25 0 1 0 -12.5 0zM656.25 512.5 a6.25 6.25 0 1 0 12.5 0 a6.25 6.25 0 1 0 -12.5 0zM481.25 462.5 a6.25 6.25 0 1 0 12.5 0 a6.25 6.25 0 1 0 -12.5 0zM606.25 462.5 a6.25 6.25 0 1 0 12.5 0 a6.25 6.25 0 1 0 -12.5 0zM356.25 462.5 a6.25 6.25 0 1 0 12.5 0 a6.25 6.25 0 1 0 -12.5 0zM231.25 462.5 a6.25 6.25 0 1 0 12.5 0 a6.25 6.25 0 1 0 -12.5 0z" fill="#3a7cc3"></path><path d="M412.5 87.5L437.5 62.5M287.5 87.5L312.5 87.5M387.5 87.5L412.5 62.5M462.5 87.5L487.5 62.5M-12.5 187.5L12.5 187.5L37.5 187.5L62.5 162.5L87.5 137.5L112.5 112.5L137.5 112.5L162.5 87.5L187.5 87.5L212.5 87.5L237.5 87.5L262.5 87.5L287.5 87.5L312.5 62.5L337.5 62.5L362.5 62.5L387.5 87.5L412.5 87.5L437.5 87.5L462.5 87.5L487.5 87.5" stroke="#3a7cc3" stroke-width="4.17"></path><path d="M481.25 87.5 a6.25 6.25 0 1 0 12.5 0 a6.25 6.25 0 1 0 -12.5 0zM431.25 62.5 a6.25 6.25 0 1 0 12.5 0 a6.25 6.25 0 1 0 -12.5 0zM306.25 87.5 a6.25 6.25 0 1 0 12.5 0 a6.25 6.25 0 1 0 -12.5 0zM406.25 62.5 a6.25 6.25 0 1 0 12.5 0 a6.25 6.25 0 1 0 -12.5 0zM481.25 62.5 a6.25 6.25 0 1 0 12.5 0 a6.25 6.25 0 1 0 -12.5 0z" fill="#3a7cc3"></path><path d="M62.5 437.5L87.5 437.5L112.5 437.5L137.5 462.5L162.5 462.5M37.5 437.5L62.5 462.5L87.5 487.5L112.5 512.5L137.5 512.5M12.5 437.5L37.5 462.5L62.5 487.5L87.5 512.5M-12.5 437.5L12.5 437.5L37.5 437.5L62.5 437.5L87.5 462.5L112.5 487.5" stroke="rgba(209, 221, 17, 1)" stroke-width="4.17"></path><path d="M106.25 487.5 a6.25 6.25 0 1 0 12.5 0 a6.25 6.25 0 1 0 -12.5 0zM156.25 462.5 a6.25 6.25 0 1 0 12.5 0 a6.25 6.25 0 1 0 -12.5 0zM131.25 512.5 a6.25 6.25 0 1 0 12.5 0 a6.25 6.25 0 1 0 -12.5 0zM81.25 512.5 a6.25 6.25 0 1 0 12.5 0 a6.25 6.25 0 1 0 -12.5 0z" fill="rgba(209, 221, 17, 1)"></path><path d="M112.5 87.5L137.5 62.5M12.5 162.5L37.5 137.5L62.5 112.5M-12.5 162.5L12.5 162.5L37.5 162.5L62.5 137.5L87.5 112.5L112.5 87.5L137.5 87.5L162.5 62.5L187.5 62.5L212.5 62.5L237.5 62.5L262.5 62.5L287.5 62.5" stroke="rgba(209, 221, 17, 1)" stroke-width="4.17"></path><path d="M281.25 62.5 a6.25 6.25 0 1 0 12.5 0 a6.25 6.25 0 1 0 -12.5 0zM131.25 62.5 a6.25 6.25 0 1 0 12.5 0 a6.25 6.25 0 1 0 -12.5 0zM56.25 112.5 a6.25 6.25 0 1 0 12.5 0 a6.25 6.25 0 1 0 -12.5 0z" fill="rgba(209, 221, 17, 1)"></path></g></g><defs><mask id="SvgjsMask1082"><rect width="1440" height="600" fill="#ffffff"></rect></mask><mask id="SvgjsMask1083"><rect width="1440" height="600" fill="white"></rect><path d="M84.37 312.5 a3.13 3.13 0 1 0 6.26 0 a3.13 3.13 0 1 0 -6.26 0z" fill="black"></path><path d="M409.37 262.5 a3.13 3.13 0 1 0 6.26 0 a3.13 3.13 0 1 0 -6.26 0zM209.37 262.5 a3.13 3.13 0 1 0 6.26 0 a3.13 3.13 0 1 0 -6.26 0zM484.37 237.5 a3.13 3.13 0 1 0 6.26 0 a3.13 3.13 0 1 0 -6.26 0zM359.37 287.5 a3.13 3.13 0 1 0 6.26 0 a3.13 3.13 0 1 0 -6.26 0zM384.37 237.5 a3.13 3.13 0 1 0 6.26 0 a3.13 3.13 0 1 0 -6.26 0z" fill="black"></path><path d="M409.37 312.5 a3.13 3.13 0 1 0 6.26 0 a3.13 3.13 0 1 0 -6.26 0zM234.37 312.5 a3.13 3.13 0 1 0 6.26 0 a3.13 3.13 0 1 0 -6.26 0zM209.37 312.5 a3.13 3.13 0 1 0 6.26 0 a3.13 3.13 0 1 0 -6.26 0zM334.37 312.5 a3.13 3.13 0 1 0 6.26 0 a3.13 3.13 0 1 0 -6.26 0zM384.37 337.5 a3.13 3.13 0 1 0 6.26 0 a3.13 3.13 0 1 0 -6.26 0z" fill="black"></path><path d="M259.37 187.5 a3.13 3.13 0 1 0 6.26 0 a3.13 3.13 0 1 0 -6.26 0zM309.37 212.5 a3.13 3.13 0 1 0 6.26 0 a3.13 3.13 0 1 0 -6.26 0zM84.37 237.5 a3.13 3.13 0 1 0 6.26 0 a3.13 3.13 0 1 0 -6.26 0zM209.37 237.5 a3.13 3.13 0 1 0 6.26 0 a3.13 3.13 0 1 0 -6.26 0z" fill="black"></path><path d="M9.37 362.5 a3.13 3.13 0 1 0 6.26 0 a3.13 3.13 0 1 0 -6.26 0z" fill="black"></path><path d="M384.37 162.5 a3.13 3.13 0 1 0 6.26 0 a3.13 3.13 0 1 0 -6.26 0zM309.37 137.5 a3.13 3.13 0 1 0 6.26 0 a3.13 3.13 0 1 0 -6.26 0zM159.37 187.5 a3.13 3.13 0 1 0 6.26 0 a3.13 3.13 0 1 0 -6.26 0zM459.37 137.5 a3.13 3.13 0 1 0 6.26 0 a3.13 3.13 0 1 0 -6.26 0zM259.37 137.5 a3.13 3.13 0 1 0 6.26 0 a3.13 3.13 0 1 0 -6.26 0z" fill="black"></path><path d="M609.37 437.5 a3.13 3.13 0 1 0 6.26 0 a3.13 3.13 0 1 0 -6.26 0zM459.37 387.5 a3.13 3.13 0 1 0 6.26 0 a3.13 3.13 0 1 0 -6.26 0zM284.37 387.5 a3.13 3.13 0 1 0 6.26 0 a3.13 3.13 0 1 0 -6.26 0zM134.37 387.5 a3.13 3.13 0 1 0 6.26 0 a3.13 3.13 0 1 0 -6.26 0zM634.37 412.5 a3.13 3.13 0 1 0 6.26 0 a3.13 3.13 0 1 0 -6.26 0zM559.37 362.5 a3.13 3.13 0 1 0 6.26 0 a3.13 3.13 0 1 0 -6.26 0zM359.37 362.5 a3.13 3.13 0 1 0 6.26 0 a3.13 3.13 0 1 0 -6.26 0z" fill="black"></path><path d="M459.37 112.5 a3.13 3.13 0 1 0 6.26 0 a3.13 3.13 0 1 0 -6.26 0zM209.37 137.5 a3.13 3.13 0 1 0 6.26 0 a3.13 3.13 0 1 0 -6.26 0zM359.37 87.5 a3.13 3.13 0 1 0 6.26 0 a3.13 3.13 0 1 0 -6.26 0zM159.37 137.5 a3.13 3.13 0 1 0 6.26 0 a3.13 3.13 0 1 0 -6.26 0zM334.37 87.5 a3.13 3.13 0 1 0 6.26 0 a3.13 3.13 0 1 0 -6.26 0z" fill="black"></path><path d="M659.37 462.5 a3.13 3.13 0 1 0 6.26 0 a3.13 3.13 0 1 0 -6.26 0zM659.37 512.5 a3.13 3.13 0 1 0 6.26 0 a3.13 3.13 0 1 0 -6.26 0zM484.37 462.5 a3.13 3.13 0 1 0 6.26 0 a3.13 3.13 0 1 0 -6.26 0zM609.37 462.5 a3.13 3.13 0 1 0 6.26 0 a3.13 3.13 0 1 0 -6.26 0zM359.37 462.5 a3.13 3.13 0 1 0 6.26 0 a3.13 3.13 0 1 0 -6.26 0zM234.37 462.5 a3.13 3.13 0 1 0 6.26 0 a3.13 3.13 0 1 0 -6.26 0z" fill="black"></path><path d="M484.37 87.5 a3.13 3.13 0 1 0 6.26 0 a3.13 3.13 0 1 0 -6.26 0zM434.37 62.5 a3.13 3.13 0 1 0 6.26 0 a3.13 3.13 0 1 0 -6.26 0zM309.37 87.5 a3.13 3.13 0 1 0 6.26 0 a3.13 3.13 0 1 0 -6.26 0zM409.37 62.5 a3.13 3.13 0 1 0 6.26 0 a3.13 3.13 0 1 0 -6.26 0zM484.37 62.5 a3.13 3.13 0 1 0 6.26 0 a3.13 3.13 0 1 0 -6.26 0z" fill="black"></path><path d="M109.37 487.5 a3.13 3.13 0 1 0 6.26 0 a3.13 3.13 0 1 0 -6.26 0zM159.37 462.5 a3.13 3.13 0 1 0 6.26 0 a3.13 3.13 0 1 0 -6.26 0zM134.37 512.5 a3.13 3.13 0 1 0 6.26 0 a3.13 3.13 0 1 0 -6.26 0zM84.37 512.5 a3.13 3.13 0 1 0 6.26 0 a3.13 3.13 0 1 0 -6.26 0z" fill="black"></path><path d="M284.37 62.5 a3.13 3.13 0 1 0 6.26 0 a3.13 3.13 0 1 0 -6.26 0zM134.37 62.5 a3.13 3.13 0 1 0 6.26 0 a3.13 3.13 0 1 0 -6.26 0zM59.37 112.5 a3.13 3.13 0 1 0 6.26 0 a3.13 3.13 0 1 0 -6.26 0z" fill="black"></path></mask></defs></svg>