<svg xmlns="http://www.w3.org/2000/svg" version="1.1" xmlns:xlink="http://www.w3.org/1999/xlink" xmlns:svgjs="http://svgjs.com/svgjs" width="1440" height="600" preserveAspectRatio="none" viewBox="0 0 1440 600"><g mask="url(&quot;#SvgjsMask1040&quot;)" fill="none"><rect width="1440" height="600" x="0" y="0" fill="#1e3266"></rect><path d="M1488 600L0 600 L0 402.44Q11.67 294.11, 120 305.78Q202.81 316.58, 192 399.39Q186.89 322.28, 264 317.17Q293.87 275.04, 336 304.91Q408.15 257.06, 456 329.21Q539.14 292.35, 576 375.49Q645.63 325.13, 696 394.76Q696.38 323.14, 768 323.53Q816.84 252.37, 888 301.2Q977.21 270.41, 1008 359.62Q1047.44 279.06, 1128 318.5Q1156.41 274.91, 1200 303.32Q1259.18 290.5, 1272 349.69Q1293.97 299.66, 1344 321.64Q1373.96 279.61, 1416 309.57Q1466.24 287.81, 1488 338.05z" fill="#182f5d"></path><path d="M1464 600L0 600 L0 382.93Q69.43 380.36, 72 449.79Q81.6 387.39, 144 396.99Q172.88 353.87, 216 382.75Q273.69 368.44, 288 426.13Q339.65 357.78, 408 409.44Q475.71 405.15, 480 472.86Q491.49 364.35, 600 375.84Q669.12 324.95, 720 394.07Q813.55 367.62, 840 461.17Q881.63 382.8, 960 424.42Q1007.51 399.94, 1032 447.45Q1039.47 382.92, 1104 390.39Q1172.22 338.61, 1224 406.83Q1297.28 360.11, 1344 433.39Q1375.73 345.12, 1464 376.85z" fill="#25467d"></path><path d="M1464 600L0 600 L0 504.07Q23.88 455.95, 72 479.83Q125.66 413.49, 192 467.14Q261.47 464.61, 264 534.07Q287.15 485.22, 336 508.37Q349.63 450, 408 463.64Q482.49 418.13, 528 492.62Q592.35 484.97, 600 549.32Q645.57 474.89, 720 520.47Q733.05 461.52, 792 474.58Q816.27 426.86, 864 451.13Q918.9 434.03, 936 488.93Q962.33 443.26, 1008 469.59Q1036.04 425.63, 1080 453.67Q1129.81 431.48, 1152 481.29Q1195.17 452.47, 1224 495.64Q1305.34 456.98, 1344 538.32Q1372.09 446.41, 1464 474.5z" fill="#356cb1"></path><path d="M1512 600L0 600 L0 567.65Q79.16 526.81, 120 605.97Q174.09 540.06, 240 594.14Q272.3 506.44, 360 538.74Q407.66 514.4, 432 562.06Q513.5 523.55, 552 605.05Q580.34 513.39, 672 541.73Q699.75 497.48, 744 525.23Q827.58 488.81, 864 572.39Q914.25 550.64, 936 600.9Q962.58 507.48, 1056 534.06Q1130.13 488.18, 1176 562.31Q1253.82 520.13, 1296 597.95Q1324.68 554.63, 1368 583.32Q1386.86 530.17, 1440 549.03Q1465.43 502.46, 1512 527.89z" fill="white"></path></g><defs><mask id="SvgjsMask1040"><rect width="1440" height="600" fill="#ffffff"></rect></mask></defs></svg>