<svg xmlns="http://www.w3.org/2000/svg" version="1.1" xmlns:xlink="http://www.w3.org/1999/xlink" xmlns:svgjs="http://svgjs.com/svgjs" width="1440" height="600" preserveAspectRatio="none" viewBox="0 0 1440 600"><g mask="url(&quot;#SvgjsMask1060&quot;)" fill="none"><rect width="1440" height="600" x="0" y="0" fill="#0e2a47"></rect><path d="M1235.05 234.29L1247.13 234.29L1247.13 252.44L1235.05 252.44z" stroke="#d3b714"></path><path d="M35.13 126.59 a20.79 20.79 0 1 0 41.58 0 a20.79 20.79 0 1 0 -41.58 0z" fill="#037b0b"></path><path d="M961.07 262.69 a48.31 48.31 0 1 0 96.62 0 a48.31 48.31 0 1 0 -96.62 0z" stroke="#037b0b"></path><path d="M46.51 294.89L52.02 294.89L52.02 300.4L46.51 300.4z" stroke="#e73635"></path><path d="M1426.57 244.12L1479.52 244.12L1479.52 297.07L1426.57 297.07z" stroke="#d3b714"></path><path d="M121.9 400.33a13.12 13.12 0 1 0-9.66 24.4z" stroke="#e73635"></path><path d="M762.44 316.25L814.04 316.25L814.04 369.78L762.44 369.78z" fill="#037b0b"></path><path d="M541.22 380.61L596.91 380.61L596.91 436.3L541.22 436.3z" stroke="#e73635"></path><path d="M1278.09 557.27a24.28 24.28 0 1 0-11.46 47.19z" stroke="#037b0b"></path><path d="M388.65 137.07 a3.23 3.23 0 1 0 6.46 0 a3.23 3.23 0 1 0 -6.46 0z" fill="#d3b714"></path><path d="M937.66 260.22L970.77 260.22L970.77 293.33L937.66 293.33z" stroke="#e73635"></path><path d="M35.97 54.06L51.83 54.06L51.83 69.92L35.97 69.92z" fill="#037b0b"></path><path d="M1347.77 517.31L1366.21 517.31L1366.21 535.75L1347.77 535.75z" stroke="#037b0b"></path><path d="M1079.05 441.47L1096.5 441.47L1096.5 474.2L1079.05 474.2z" stroke="#e73635"></path><path d="M799.42 355.41L831.03 355.41L831.03 412.41L799.42 412.41z" stroke="#d3b714"></path><path d="M329.08 176.82a34.13 34.13 0 1 0-4.96-68.08z" stroke="#e73635"></path><path d="M1026.52 262.72 a35.74 35.74 0 1 0 71.48 0 a35.74 35.74 0 1 0 -71.48 0z" fill="#d3b714"></path><path d="M694.7 109.67 a3.5 3.5 0 1 0 7 0 a3.5 3.5 0 1 0 -7 0z" fill="#037b0b"></path><path d="M1432.08 42.08L1470.89 42.08L1470.89 55.96L1432.08 55.96z" stroke="#d3b714"></path><path d="M276.47 553.26 a15.43 15.43 0 1 0 30.86 0 a15.43 15.43 0 1 0 -30.86 0z" fill="#e73635"></path><path d="M609.37 458.72 a16.55 16.55 0 1 0 33.1 0 a16.55 16.55 0 1 0 -33.1 0z" stroke="#037b0b"></path><path d="M1310.45 16.66 a30.48 30.48 0 1 0 60.96 0 a30.48 30.48 0 1 0 -60.96 0z" stroke="#d3b714"></path><path d="M1071.32 245.89L1112.93 245.89L1112.93 246.22L1071.32 246.22z" stroke="#e73635"></path><path d="M1372.89 380.75L1420.26 380.75L1420.26 428.12L1372.89 428.12z" stroke="#d3b714"></path><path d="M1085.31 468.44L1119.86 468.44L1119.86 523.78L1085.31 523.78z" stroke="#037b0b"></path><path d="M494.44 580.46a20.7 20.7 0 1 0-7.14-40.78z" stroke="#d3b714"></path><path d="M1097.92 579.48L1120.96 579.48L1120.96 589.74L1097.92 589.74z" stroke="#037b0b"></path><path d="M1362.61 371.57a59.43 59.43 0 1 0-49.95 107.85z" fill="#037b0b"></path><path d="M1209.92 62.74 a0.15 0.15 0 1 0 0.3 0 a0.15 0.15 0 1 0 -0.3 0z" fill="#e73635"></path><path d="M434 63.45L462.59 63.45L462.59 92.04L434 92.04z" fill="#d3b714"></path></g><defs><mask id="SvgjsMask1060"><rect width="1440" height="600" fill="#ffffff"></rect></mask></defs></svg>