<svg xmlns="http://www.w3.org/2000/svg" version="1.1" xmlns:xlink="http://www.w3.org/1999/xlink" xmlns:svgjs="http://svgjs.com/svgjs" width="1440" height="600" preserveAspectRatio="none" viewBox="0 0 1440 600"><g mask="url(&quot;#SvgjsMask1052&quot;)" fill="none"><rect width="1440" height="600" x="0" y="0" fill="rgba(14, 41, 71, 1)"></rect><path d="M655.94 714.92C778.58 713.9 873.18 599.01 1130.58 590.95 1387.97 582.89 1468.3 324.74 1605.21 314.95" stroke="rgba(166, 194, 51, 0.67)" stroke-width="2"></path><path d="M275.58 625.75C421.34 605.24 497.01 267.11 740.03 263.87 983.06 260.63 972.26 338.87 1204.49 338.87 1436.71 338.87 1551.32 264.11 1668.94 263.87" stroke="rgba(166, 194, 51, 0.67)" stroke-width="2"></path><path d="M405.93 647.01C514.79 636.38 469.55 417.36 770.66 405.33 1071.76 393.3 1306.21 145.35 1500.11 141.33" stroke="rgba(166, 194, 51, 0.67)" stroke-width="2"></path><path d="M183.14 700.04C384.76 680.93 491.3 269.42 861.1 256.62 1230.9 243.82 1365.47 107.51 1539.06 106.62" stroke="rgba(166, 194, 51, 0.67)" stroke-width="2"></path><path d="M650.38 695.13C778.46 687.79 851.96 465.48 1103.41 454.12 1354.86 442.76 1432.91 260.38 1556.44 256.12" stroke="rgba(166, 194, 51, 0.67)" stroke-width="2"></path></g><defs><mask id="SvgjsMask1052"><rect width="1440" height="600" fill="#ffffff"></rect></mask></defs></svg>