<svg xmlns="http://www.w3.org/2000/svg" version="1.1" xmlns:xlink="http://www.w3.org/1999/xlink" xmlns:svgjs="http://svgjs.com/svgjs" width="1440" height="600" preserveAspectRatio="none" viewBox="0 0 1440 600"><g mask="url(&quot;#SvgjsMask1200&quot;)" fill="none"><rect width="1440" height="600" x="0" y="0" fill="#0e2a47"></rect><path d="M36.25 -5.4L148.84 59.6L148.84 189.6L36.25 254.6L-76.34 189.6L-76.34 59.6zM148.84 189.6L261.42 254.6L261.42 384.6L148.84 449.6L36.25 384.6L36.25 254.6zM148.84 579.6L261.42 644.6L261.42 774.6L148.84 839.6L36.25 774.6L36.25 644.6zM261.42 -5.4L374.01 59.6L374.01 189.6L261.42 254.6L148.84 189.6L148.84 59.6zM261.42 384.6L374.01 449.6L374.01 579.6L261.42 644.6L148.84 579.6L148.84 449.6zM599.18 579.6L711.77 644.6L711.77 774.6L599.18 839.6L486.6 774.6L486.6 644.6zM711.77 -5.4L824.36 59.6L824.36 189.6L711.77 254.6L599.18 189.6L599.18 59.6zM711.77 384.6L824.36 449.6L824.36 579.6L711.77 644.6L599.18 579.6L599.18 449.6zM824.36 579.6L936.94 644.6L936.94 774.6L824.36 839.6L711.77 774.6L711.77 644.6zM936.94 -5.4L1049.53 59.6L1049.53 189.6L936.94 254.6L824.36 189.6L824.36 59.6zM936.94 384.6L1049.53 449.6L1049.53 579.6L936.94 644.6L824.36 579.6L824.36 449.6zM1274.7 189.6L1387.29 254.6L1387.29 384.6L1274.7 449.6L1162.12 384.6L1162.12 254.6zM1499.87 189.6L1612.46 254.6L1612.46 384.6L1499.87 449.6L1387.29 384.6L1387.29 254.6z" stroke="#03305d" stroke-width="2"></path><path d="M23.25 -5.4 a13 13 0 1 0 26 0 a13 13 0 1 0 -26 0zM135.84 59.6 a13 13 0 1 0 26 0 a13 13 0 1 0 -26 0zM135.84 189.6 a13 13 0 1 0 26 0 a13 13 0 1 0 -26 0zM23.25 254.6 a13 13 0 1 0 26 0 a13 13 0 1 0 -26 0zM-89.34 189.6 a13 13 0 1 0 26 0 a13 13 0 1 0 -26 0zM-89.34 59.6 a13 13 0 1 0 26 0 a13 13 0 1 0 -26 0zM248.42 254.6 a13 13 0 1 0 26 0 a13 13 0 1 0 -26 0zM248.42 384.6 a13 13 0 1 0 26 0 a13 13 0 1 0 -26 0zM135.84 449.6 a13 13 0 1 0 26 0 a13 13 0 1 0 -26 0zM23.25 384.6 a13 13 0 1 0 26 0 a13 13 0 1 0 -26 0zM135.84 579.6 a13 13 0 1 0 26 0 a13 13 0 1 0 -26 0zM248.42 644.6 a13 13 0 1 0 26 0 a13 13 0 1 0 -26 0zM248.42 774.6 a13 13 0 1 0 26 0 a13 13 0 1 0 -26 0zM135.84 839.6 a13 13 0 1 0 26 0 a13 13 0 1 0 -26 0zM23.25 774.6 a13 13 0 1 0 26 0 a13 13 0 1 0 -26 0zM23.25 644.6 a13 13 0 1 0 26 0 a13 13 0 1 0 -26 0zM248.42 -5.4 a13 13 0 1 0 26 0 a13 13 0 1 0 -26 0zM361.01 59.6 a13 13 0 1 0 26 0 a13 13 0 1 0 -26 0zM361.01 189.6 a13 13 0 1 0 26 0 a13 13 0 1 0 -26 0zM361.01 449.6 a13 13 0 1 0 26 0 a13 13 0 1 0 -26 0zM361.01 579.6 a13 13 0 1 0 26 0 a13 13 0 1 0 -26 0zM586.18 579.6 a13 13 0 1 0 26 0 a13 13 0 1 0 -26 0zM698.77 644.6 a13 13 0 1 0 26 0 a13 13 0 1 0 -26 0zM698.77 774.6 a13 13 0 1 0 26 0 a13 13 0 1 0 -26 0zM586.18 839.6 a13 13 0 1 0 26 0 a13 13 0 1 0 -26 0zM473.6 774.6 a13 13 0 1 0 26 0 a13 13 0 1 0 -26 0zM473.6 644.6 a13 13 0 1 0 26 0 a13 13 0 1 0 -26 0zM698.77 -5.4 a13 13 0 1 0 26 0 a13 13 0 1 0 -26 0zM811.36 59.6 a13 13 0 1 0 26 0 a13 13 0 1 0 -26 0zM811.36 189.6 a13 13 0 1 0 26 0 a13 13 0 1 0 -26 0zM698.77 254.6 a13 13 0 1 0 26 0 a13 13 0 1 0 -26 0zM586.18 189.6 a13 13 0 1 0 26 0 a13 13 0 1 0 -26 0zM586.18 59.6 a13 13 0 1 0 26 0 a13 13 0 1 0 -26 0zM698.77 384.6 a13 13 0 1 0 26 0 a13 13 0 1 0 -26 0zM811.36 449.6 a13 13 0 1 0 26 0 a13 13 0 1 0 -26 0zM811.36 579.6 a13 13 0 1 0 26 0 a13 13 0 1 0 -26 0zM586.18 449.6 a13 13 0 1 0 26 0 a13 13 0 1 0 -26 0zM923.94 644.6 a13 13 0 1 0 26 0 a13 13 0 1 0 -26 0zM923.94 774.6 a13 13 0 1 0 26 0 a13 13 0 1 0 -26 0zM811.36 839.6 a13 13 0 1 0 26 0 a13 13 0 1 0 -26 0zM923.94 -5.4 a13 13 0 1 0 26 0 a13 13 0 1 0 -26 0zM1036.53 59.6 a13 13 0 1 0 26 0 a13 13 0 1 0 -26 0zM1036.53 189.6 a13 13 0 1 0 26 0 a13 13 0 1 0 -26 0zM923.94 254.6 a13 13 0 1 0 26 0 a13 13 0 1 0 -26 0zM923.94 384.6 a13 13 0 1 0 26 0 a13 13 0 1 0 -26 0zM1036.53 449.6 a13 13 0 1 0 26 0 a13 13 0 1 0 -26 0zM1036.53 579.6 a13 13 0 1 0 26 0 a13 13 0 1 0 -26 0zM1261.7 189.6 a13 13 0 1 0 26 0 a13 13 0 1 0 -26 0zM1374.29 254.6 a13 13 0 1 0 26 0 a13 13 0 1 0 -26 0zM1374.29 384.6 a13 13 0 1 0 26 0 a13 13 0 1 0 -26 0zM1261.7 449.6 a13 13 0 1 0 26 0 a13 13 0 1 0 -26 0zM1149.12 384.6 a13 13 0 1 0 26 0 a13 13 0 1 0 -26 0zM1149.12 254.6 a13 13 0 1 0 26 0 a13 13 0 1 0 -26 0zM1486.87 189.6 a13 13 0 1 0 26 0 a13 13 0 1 0 -26 0zM1599.46 254.6 a13 13 0 1 0 26 0 a13 13 0 1 0 -26 0zM1599.46 384.6 a13 13 0 1 0 26 0 a13 13 0 1 0 -26 0zM1486.87 449.6 a13 13 0 1 0 26 0 a13 13 0 1 0 -26 0z" fill="#03305d"></path><path d="M53.13 202.37L96.44 227.37L96.44 277.37L53.13 302.37L9.83 277.37L9.83 227.37zM9.83 577.37L53.13 602.37L53.13 652.37L9.83 677.37L-33.47 652.37L-33.47 602.37zM139.74 202.37L183.04 227.37L183.04 277.37L139.74 302.37L96.44 277.37L96.44 227.37zM312.95 52.37L356.25 77.37L356.25 127.37L312.95 152.37L269.64 127.37L269.64 77.37zM312.95 502.37L356.25 527.37L356.25 577.37L312.95 602.37L269.64 577.37L269.64 527.37zM356.25 427.37L399.55 452.37L399.55 502.37L356.25 527.37L312.95 502.37L312.95 452.37zM442.86 -22.63L486.16 2.37L486.16 52.37L442.86 77.37L399.55 52.37L399.55 2.37zM486.16 52.37L529.46 77.37L529.46 127.37L486.16 152.37L442.86 127.37L442.86 77.37zM572.76 52.37L616.07 77.37L616.07 127.37L572.76 152.37L529.46 127.37L529.46 77.37zM616.07 277.37L659.37 302.37L659.37 352.37L616.07 377.37L572.76 352.37L572.76 302.37zM745.97 352.37L789.28 377.37L789.28 427.37L745.97 452.37L702.67 427.37L702.67 377.37zM789.28 127.37L832.58 152.37L832.58 202.37L789.28 227.37L745.97 202.37L745.97 152.37zM832.58 202.37L875.88 227.37L875.88 277.37L832.58 302.37L789.28 277.37L789.28 227.37zM789.28 427.37L832.58 452.37L832.58 502.37L789.28 527.37L745.97 502.37L745.97 452.37zM919.18 202.37L962.49 227.37L962.49 277.37L919.18 302.37L875.88 277.37L875.88 227.37zM1049.09 277.37L1092.39 302.37L1092.39 352.37L1049.09 377.37L1005.79 352.37L1005.79 302.37zM1135.69 127.37L1179 152.37L1179 202.37L1135.69 227.37L1092.39 202.37L1092.39 152.37zM1179 202.37L1222.3 227.37L1222.3 277.37L1179 302.37L1135.69 277.37L1135.69 227.37zM1308.9 -22.63L1352.21 2.37L1352.21 52.37L1308.9 77.37L1265.6 52.37L1265.6 2.37zM1395.51 127.37L1438.81 152.37L1438.81 202.37L1395.51 227.37L1352.21 202.37L1352.21 152.37zM1395.51 277.37L1438.81 302.37L1438.81 352.37L1395.51 377.37L1352.21 352.37L1352.21 302.37zM1438.81 352.37L1482.12 377.37L1482.12 427.37L1438.81 452.37L1395.51 427.37L1395.51 377.37zM1438.81 502.37L1482.12 527.37L1482.12 577.37L1438.81 602.37L1395.51 577.37L1395.51 527.37z" stroke="rgba(133, 156, 6, 0.93)" stroke-width="2"></path></g><defs><mask id="SvgjsMask1200"><rect width="1440" height="600" fill="#ffffff"></rect></mask></defs></svg>