<svg xmlns="http://www.w3.org/2000/svg" version="1.1" xmlns:xlink="http://www.w3.org/1999/xlink" xmlns:svgjs="http://svgjs.com/svgjs" width="1440" height="560" preserveAspectRatio="none" viewBox="0 0 1440 560"><g mask="url(&quot;#SvgjsMask1123&quot;)" fill="none"><rect width="1440" height="560" x="0" y="0" fill="#0e2a47"></rect><use xlink:href="#SvgjsG1130" transform="translate(0, 0)" fill="#0f457b"></use><use xlink:href="#SvgjsG1130" transform="translate(0, 540)" fill="#0f457b"></use><use xlink:href="#SvgjsG1130" transform="translate(540, 0)" fill="#0f457b"></use><use xlink:href="#SvgjsG1130" transform="translate(540, 540)" fill="#0f457b"></use><use xlink:href="#SvgjsG1130" transform="translate(1080, 0)" fill="#0f457b"></use><use xlink:href="#SvgjsG1130" transform="translate(1080, 540)" fill="#0f457b"></use></g><defs><mask id="SvgjsMask1123"><rect width="1440" height="560" fill="#ffffff"></rect></mask><g id="SvgjsG1126"><path d="M3.236 14.219c1.457 0 2.639-1.182 2.639-2.641 0-1.454-1.182-2.637-2.639-2.637-1.453 0-2.636 1.182-2.636 2.638 0 1.459 1.182 2.641 2.636 2.642zM0 11.578c0-1.787 1.452-3.234 3.236-3.234 1.789 0 3.239 1.446 3.239 3.234 0 1.79-1.45 3.237-3.239 3.237C1.452 14.815 0 13.367 0 11.578z m12.764 2.671c1.453 0 2.636-1.18 2.636-2.639 0-1.457-1.182-2.637-2.636-2.637-1.457 0-2.639 1.181-2.639 2.638 0 1.459 1.182 2.64 2.639 2.64zM9.525 11.61c0-1.789 1.452-3.236 3.239-3.236 1.784 0 3.236 1.446 3.236 3.236s-1.452 3.237-3.236 3.237c-1.788 0-3.239-1.448-3.239-3.237z m0.009-7.898c0.672 0 1.218-0.542 1.218-1.214S10.206 1.28 9.534 1.28s-1.218 0.546-1.218 1.218 0.546 1.214 1.218 1.214z"></path><path d="M9.584 6.666c-0.176 0.004-0.366-0.084-0.506-0.306l-0.791-1.235-1.631 1.614 1.513 0.795c0.622 0.298 0.528 0.844 0.528 0.844v3.424c0 0.388-0.312 0.704-0.701 0.704s-0.701-0.316-0.7-0.704V9.062l-2.623-1.457a1.02 1.02 0 0 1-0.525-0.889 1.003 1.003 0 0 1 0.262-0.683l2.573-2.577c0.32-0.362 0.765-0.304 0.765-0.304 0.539 0 0.823 0.47 0.823 0.47l1.337 2.095 2.03-0.004c0.729 0 0.729 0.952 0 0.952h-2.353z"></path></g><g id="SvgjsG1127"><path d="M8.828 1.361C8.627 0.58 7.913 0 7.069 0 6.062 0 5.248 0.81 5.248 1.815c0 0.17 0.02 0.324 0.063 0.477h0.73c0.054 0.126 0.112 0.198 0.112 0.198a1.216 1.216 0 0 0 0.999 0.522 1.222 1.222 0 0 0 1.223-1.222c0-0.155 0.04-0.295-0.026-0.428h0.48v-0.001z m-0.051 10.853c-0.191 0.195-0.454 0.342-0.752 0.343V8.603l2.737-0.787 0.685 1.351L8.777 12.214z"></path><path d="M6.48 3.166a0.979 0.979 0 0 0-0.735-0.327c-0.311 0-0.59 0.144-0.769 0.37l-2.171 3.318a0.972 0.972 0 0 0-0.139 0.504 0.984 0.984 0 0 0 0.436 0.819l2.914 1.617V12.218A0.705 0.705 0 0 0 6.72 12.924c0.387 0 0.703-0.316 0.703-0.706V8.782s0.093-0.547-0.529-0.847l-1.817-0.95 1.324-2.022 0.703 1.104c0.14 0.222 0.33 0.31 0.502 0.306l1.806-0.006c0.734 0 0.734-0.954 0-0.951H7.949L6.48 3.166z m7.985 4.511c0.029 0.028 0.047 0.064 0.047 0.11 0 0.086-0.074 0.159-0.16 0.159-0.024 0-0.04 0-0.058-0.007-0.312-0.133-0.51-0.216-0.872-0.216-0.241 0-0.536 0.083-0.878 0.362l-0.317-0.626c0.395-0.119 0.72-0.224 1.058-0.224 0.541 0 0.826 0.112 1.178 0.444z"></path><path d="M2.349 8.158l3.058 1.687 0.007 0.677L1.922 8.599c-0.253-0.13-0.593-0.206-0.834-0.207-0.361 0-0.56 0.083-0.87 0.217-0.019 0.007-0.035 0.007-0.058 0.007A0.161 0.161 0 0 1 0 8.458c0-0.047 0.018-0.083 0.047-0.111 0.354-0.332 0.715-0.444 1.256-0.444 0.277 0 0.614 0.032 1.048 0.256z m0.283 6.204c0.996 0 1.803-0.807 1.804-1.805S3.629 10.752 2.632 10.752c-0.996 0-1.803 0.806-1.802 1.805 0 0.997 0.807 1.805 1.803 1.805zM0.031 12.557c0-1.437 1.166-2.605 2.601-2.605 1.44 0 2.605 1.167 2.605 2.605 0 1.437-1.165 2.604-2.605 2.604C1.197 15.161 0.031 13.994 0.031 12.557z m13.364 1.805A1.803 1.803 0 0 0 15.2 12.557 1.804 1.804 0 0 0 13.395 10.752c-0.993 0-1.8 0.807-1.801 1.805 0 0.998 0.807 1.805 1.801 1.805z m-2.6-1.805c0-1.437 1.163-2.605 2.6-2.605C14.832 9.952 16 11.12 16 12.557s-1.168 2.604-2.605 2.603c-1.437 0-2.6-1.166-2.6-2.603z m2.027-2.975L11.558 7.053a0.981 0.981 0 0 0-0.86-0.512h-0.824a0.293 0.293 0 0 0-0.291 0.295c0 0.163 0.13 0.292 0.292 0.292l0.825-0.005c0.14 0 0.295 0.094 0.353 0.23l1.191 2.429 0.58-0.201z"></path></g><g id="SvgjsG1124"><path d="M11.974 14.95h-0.243c-0.142-0.162-0.195-0.364-0.152-0.614 0.071-0.413 0.364-0.754 0.504-0.803l-0.002-0.005a0.525 0.525 0 0 0 0.346-0.491l0.01-10.776c0-0.289-0.234-0.525-0.517-0.527 0 0-2.157-0.002-2.749-0.006l0.003-1.204c0-0.213-0.123-0.403-0.318-0.485a0.517 0.517 0 0 0-0.564 0.11L4.684 3.773C4.051 4.41 3.55 5.613 3.549 6.518L3.52 14.057c-0.002 1.054 0.844 1.918 1.892 1.923l6.56 0.02c0.285 0 0.518-0.235 0.518-0.521v-0.002c0-0.291-0.229-0.525-0.516-0.526M11.398 2.784c0 0.899-0.008 8.829-0.01 9.73h-5.912l3.702-3.137-0.007-6.597c0.336 0.002 1.916 0.004 2.227 0.004M4.557 14.06s0.002-0.434 0.002-0.498H10.75c-0.089 0.19-0.16 0.391-0.194 0.594-0.049 0.28-0.024 0.542 0.038 0.79l-5.179-0.016c-0.474 0-0.858-0.389-0.858-0.87"></path></g><g id="SvgjsG1125"><path d="M1.12 8.836c1.001-1.179 2.827-2.005 4.388-1.743 0.174-2.151-0.071-4.156 1-6.133C3.189 1.173 1.648 6.247 1.12 8.836M12.892 5.07c0.697-0.83 2.347-1.253 3.213-0.476C13.849 1.44 11.058-0.583 7.086 0.764c3.102 0.942 5.276 3.84 5.805 4.306"></path><path d="M12.267 5.198C11.182 3.684 7.769 1.266 7.019 1.417c-0.8 0.16-1.022 4.702-0.95 5.676 0.475-0.892 1.202-1.564 2.045-1.984l3.461 9.423 0.475-0.12-3.494-9.493c1.156-0.427 2.484-0.391 3.712 0.279"></path></g><g id="SvgjsG1129"><path d="M7.232 1.081a0.289 0.289 0 0 1-0.246-0.285c0-0.109 0.062-0.2 0.148-0.253-0.09-0.05-0.148-0.145-0.148-0.252C6.986 0.129 7.114 0 7.274 0h1.43c0.16 0 0.287 0.129 0.287 0.291 0 0.111-0.062 0.206-0.155 0.253 0.09 0.049 0.156 0.144 0.156 0.253a0.29 0.29 0 0 1-0.246 0.284l1.736 4.746c0.108 0.305 0.164 0.65 0.164 0.993v8.415a0.571 0.571 0 0 1-0.572 0.571H5.9A0.57 0.57 0 0 1 5.332 15.235V6.822c0-0.344 0.056-0.688 0.16-0.995l1.74-4.745z" fill-rule="evenodd"></path></g><g id="SvgjsG1128"><path d="M15.98 13.856L11.694 9.568a6.304 6.304 0 1 0-5.388 3.04 6.26 6.26 0 0 0 3.26-0.914l4.29 4.292L15.98 13.856zM2.406 6.308a3.908 3.908 0 0 1 3.9-3.9 3.906 3.906 0 0 1 3.9 3.9 3.9 3.9 0 0 1-7.8 0z"></path></g><g id="SvgjsG1130"><use xlink:href="#SvgjsG1124" transform="translate(0, 0) scale(2)" fill="#0f457b"></use><use xlink:href="#SvgjsG1125" transform="translate(0, 54) scale(2)" fill="#0f457b"></use><use xlink:href="#SvgjsG1126" transform="translate(0, 108) scale(2)" fill="#0f457b"></use><use xlink:href="#SvgjsG1126" transform="translate(0, 162) scale(2)" fill="#0f457b"></use><use xlink:href="#SvgjsG1127" transform="translate(0, 216) scale(2)" fill="#0f457b"></use><use xlink:href="#SvgjsG1125" transform="translate(0, 270) scale(2)" fill="#0f457b"></use><use xlink:href="#SvgjsG1126" transform="translate(0, 324) scale(2)" fill="#0f457b"></use><use xlink:href="#SvgjsG1128" transform="translate(0, 378) scale(2)" fill="#0f457b"></use><use xlink:href="#SvgjsG1129" transform="translate(0, 432) scale(2)" fill="#0f457b"></use><use xlink:href="#SvgjsG1127" transform="translate(0, 486) scale(2)" fill="#0f457b"></use><use xlink:href="#SvgjsG1126" transform="translate(54, 0) scale(2)" fill="#0f457b"></use><use xlink:href="#SvgjsG1125" transform="translate(54, 54) scale(2)" fill="#0f457b"></use><use xlink:href="#SvgjsG1127" transform="translate(54, 108) scale(2)" fill="#0f457b"></use><use xlink:href="#SvgjsG1128" transform="translate(54, 162) scale(2)" fill="#0f457b"></use><use xlink:href="#SvgjsG1127" transform="translate(54, 216) scale(2)" fill="#0f457b"></use><use xlink:href="#SvgjsG1126" transform="translate(54, 270) scale(2)" fill="#0f457b"></use><use xlink:href="#SvgjsG1127" transform="translate(54, 324) scale(2)" fill="#0f457b"></use><use xlink:href="#SvgjsG1125" transform="translate(54, 378) scale(2)" fill="#0f457b"></use><use xlink:href="#SvgjsG1129" transform="translate(54, 432) scale(2)" fill="#0f457b"></use><use xlink:href="#SvgjsG1126" transform="translate(54, 486) scale(2)" fill="#0f457b"></use><use xlink:href="#SvgjsG1126" transform="translate(108, 0) scale(2)" fill="#0f457b"></use><use xlink:href="#SvgjsG1127" transform="translate(108, 54) scale(2)" fill="#0f457b"></use><use xlink:href="#SvgjsG1124" transform="translate(108, 108) scale(2)" fill="#0f457b"></use><use xlink:href="#SvgjsG1128" transform="translate(108, 162) scale(2)" fill="#0f457b"></use><use xlink:href="#SvgjsG1124" transform="translate(108, 216) scale(2)" fill="#0f457b"></use><use xlink:href="#SvgjsG1126" transform="translate(108, 270) scale(2)" fill="#0f457b"></use><use xlink:href="#SvgjsG1128" transform="translate(108, 324) scale(2)" fill="#0f457b"></use><use xlink:href="#SvgjsG1124" transform="translate(108, 378) scale(2)" fill="#0f457b"></use><use xlink:href="#SvgjsG1128" transform="translate(108, 432) scale(2)" fill="#0f457b"></use><use xlink:href="#SvgjsG1124" transform="translate(108, 486) scale(2)" fill="#0f457b"></use><use xlink:href="#SvgjsG1127" transform="translate(162, 0) scale(2)" fill="#0f457b"></use><use xlink:href="#SvgjsG1129" transform="translate(162, 54) scale(2)" fill="#0f457b"></use><use xlink:href="#SvgjsG1125" transform="translate(162, 108) scale(2)" fill="#0f457b"></use><use xlink:href="#SvgjsG1125" transform="translate(162, 162) scale(2)" fill="#0f457b"></use><use xlink:href="#SvgjsG1128" transform="translate(162, 216) scale(2)" fill="#0f457b"></use><use xlink:href="#SvgjsG1125" transform="translate(162, 270) scale(2)" fill="#0f457b"></use><use xlink:href="#SvgjsG1129" transform="translate(162, 324) scale(2)" fill="#0f457b"></use><use xlink:href="#SvgjsG1124" transform="translate(162, 378) scale(2)" fill="#0f457b"></use><use xlink:href="#SvgjsG1128" transform="translate(162, 432) scale(2)" fill="#0f457b"></use><use xlink:href="#SvgjsG1128" transform="translate(162, 486) scale(2)" fill="#0f457b"></use><use xlink:href="#SvgjsG1124" transform="translate(216, 0) scale(2)" fill="#0f457b"></use><use xlink:href="#SvgjsG1125" transform="translate(216, 54) scale(2)" fill="#0f457b"></use><use xlink:href="#SvgjsG1127" transform="translate(216, 108) scale(2)" fill="#0f457b"></use><use xlink:href="#SvgjsG1127" transform="translate(216, 162) scale(2)" fill="#0f457b"></use><use xlink:href="#SvgjsG1124" transform="translate(216, 216) scale(2)" fill="#0f457b"></use><use xlink:href="#SvgjsG1126" transform="translate(216, 270) scale(2)" fill="#0f457b"></use><use xlink:href="#SvgjsG1129" transform="translate(216, 324) scale(2)" fill="#0f457b"></use><use xlink:href="#SvgjsG1126" transform="translate(216, 378) scale(2)" fill="#0f457b"></use><use xlink:href="#SvgjsG1125" transform="translate(216, 432) scale(2)" fill="#0f457b"></use><use xlink:href="#SvgjsG1127" transform="translate(216, 486) scale(2)" fill="#0f457b"></use><use xlink:href="#SvgjsG1125" transform="translate(270, 0) scale(2)" fill="#0f457b"></use><use xlink:href="#SvgjsG1126" transform="translate(270, 54) scale(2)" fill="#0f457b"></use><use xlink:href="#SvgjsG1125" transform="translate(270, 108) scale(2)" fill="#0f457b"></use><use xlink:href="#SvgjsG1126" transform="translate(270, 162) scale(2)" fill="#0f457b"></use><use xlink:href="#SvgjsG1126" transform="translate(270, 216) scale(2)" fill="#0f457b"></use><use xlink:href="#SvgjsG1125" transform="translate(270, 270) scale(2)" fill="#0f457b"></use><use xlink:href="#SvgjsG1127" transform="translate(270, 324) scale(2)" fill="#0f457b"></use><use xlink:href="#SvgjsG1125" transform="translate(270, 378) scale(2)" fill="#0f457b"></use><use xlink:href="#SvgjsG1126" transform="translate(270, 432) scale(2)" fill="#0f457b"></use><use xlink:href="#SvgjsG1127" transform="translate(270, 486) scale(2)" fill="#0f457b"></use><use xlink:href="#SvgjsG1129" transform="translate(324, 0) scale(2)" fill="#0f457b"></use><use xlink:href="#SvgjsG1124" transform="translate(324, 54) scale(2)" fill="#0f457b"></use><use xlink:href="#SvgjsG1127" transform="translate(324, 108) scale(2)" fill="#0f457b"></use><use xlink:href="#SvgjsG1124" transform="translate(324, 162) scale(2)" fill="#0f457b"></use><use xlink:href="#SvgjsG1128" transform="translate(324, 216) scale(2)" fill="#0f457b"></use><use xlink:href="#SvgjsG1129" transform="translate(324, 270) scale(2)" fill="#0f457b"></use><use xlink:href="#SvgjsG1128" transform="translate(324, 324) scale(2)" fill="#0f457b"></use><use xlink:href="#SvgjsG1127" transform="translate(324, 378) scale(2)" fill="#0f457b"></use><use xlink:href="#SvgjsG1124" transform="translate(324, 432) scale(2)" fill="#0f457b"></use><use xlink:href="#SvgjsG1124" transform="translate(324, 486) scale(2)" fill="#0f457b"></use><use xlink:href="#SvgjsG1127" transform="translate(378, 0) scale(2)" fill="#0f457b"></use><use xlink:href="#SvgjsG1129" transform="translate(378, 54) scale(2)" fill="#0f457b"></use><use xlink:href="#SvgjsG1129" transform="translate(378, 108) scale(2)" fill="#0f457b"></use><use xlink:href="#SvgjsG1127" transform="translate(378, 162) scale(2)" fill="#0f457b"></use><use xlink:href="#SvgjsG1129" transform="translate(378, 216) scale(2)" fill="#0f457b"></use><use xlink:href="#SvgjsG1128" transform="translate(378, 270) scale(2)" fill="#0f457b"></use><use xlink:href="#SvgjsG1124" transform="translate(378, 324) scale(2)" fill="#0f457b"></use><use xlink:href="#SvgjsG1126" transform="translate(378, 378) scale(2)" fill="#0f457b"></use><use xlink:href="#SvgjsG1129" transform="translate(378, 432) scale(2)" fill="#0f457b"></use><use xlink:href="#SvgjsG1125" transform="translate(378, 486) scale(2)" fill="#0f457b"></use><use xlink:href="#SvgjsG1127" transform="translate(432, 0) scale(2)" fill="#0f457b"></use><use xlink:href="#SvgjsG1128" transform="translate(432, 54) scale(2)" fill="#0f457b"></use><use xlink:href="#SvgjsG1129" transform="translate(432, 108) scale(2)" fill="#0f457b"></use><use xlink:href="#SvgjsG1124" transform="translate(432, 162) scale(2)" fill="#0f457b"></use><use xlink:href="#SvgjsG1124" transform="translate(432, 216) scale(2)" fill="#0f457b"></use><use xlink:href="#SvgjsG1125" transform="translate(432, 270) scale(2)" fill="#0f457b"></use><use xlink:href="#SvgjsG1128" transform="translate(432, 324) scale(2)" fill="#0f457b"></use><use xlink:href="#SvgjsG1124" transform="translate(432, 378) scale(2)" fill="#0f457b"></use><use xlink:href="#SvgjsG1124" transform="translate(432, 432) scale(2)" fill="#0f457b"></use><use xlink:href="#SvgjsG1127" transform="translate(432, 486) scale(2)" fill="#0f457b"></use><use xlink:href="#SvgjsG1125" transform="translate(486, 0) scale(2)" fill="#0f457b"></use><use xlink:href="#SvgjsG1126" transform="translate(486, 54) scale(2)" fill="#0f457b"></use><use xlink:href="#SvgjsG1125" transform="translate(486, 108) scale(2)" fill="#0f457b"></use><use xlink:href="#SvgjsG1126" transform="translate(486, 162) scale(2)" fill="#0f457b"></use><use xlink:href="#SvgjsG1125" transform="translate(486, 216) scale(2)" fill="#0f457b"></use><use xlink:href="#SvgjsG1125" transform="translate(486, 270) scale(2)" fill="#0f457b"></use><use xlink:href="#SvgjsG1129" transform="translate(486, 324) scale(2)" fill="#0f457b"></use><use xlink:href="#SvgjsG1124" transform="translate(486, 378) scale(2)" fill="#0f457b"></use><use xlink:href="#SvgjsG1129" transform="translate(486, 432) scale(2)" fill="#0f457b"></use><use xlink:href="#SvgjsG1125" transform="translate(486, 486) scale(2)" fill="#0f457b"></use></g></defs></svg>