<svg xmlns="http://www.w3.org/2000/svg" version="1.1" xmlns:xlink="http://www.w3.org/1999/xlink" xmlns:svgjs="http://svgjs.com/svgjs" width="1440" height="560" preserveAspectRatio="none" viewBox="0 0 1440 560"><g mask="url(&quot;#SvgjsMask1033&quot;)" fill="none"><rect width="1440" height="560" x="0" y="0" fill="#0e2a47"></rect><path d="M465 201L464 -109" stroke-width="10" stroke="url(#SvgjsLinearGradient1034)" stroke-linecap="round" class="Up"></path><path d="M1160 264L1159 -124" stroke-width="6" stroke="url(#SvgjsLinearGradient1034)" stroke-linecap="round" class="Up"></path><path d="M441 265L440 -112" stroke-width="10" stroke="url(#SvgjsLinearGradient1035)" stroke-linecap="round" class="Down"></path><path d="M1355 262L1354 -16" stroke-width="6" stroke="url(#SvgjsLinearGradient1034)" stroke-linecap="round" class="Up"></path><path d="M725 106L724 252" stroke-width="6" stroke="url(#SvgjsLinearGradient1034)" stroke-linecap="round" class="Up"></path><path d="M1207 83L1206 -93" stroke-width="6" stroke="url(#SvgjsLinearGradient1034)" stroke-linecap="round" class="Up"></path><path d="M438 330L437 163" stroke-width="10" stroke="url(#SvgjsLinearGradient1035)" stroke-linecap="round" class="Down"></path><path d="M379 17L378 406" stroke-width="10" stroke="url(#SvgjsLinearGradient1034)" stroke-linecap="round" class="Up"></path><path d="M1196 270L1195 440" stroke-width="8" stroke="url(#SvgjsLinearGradient1035)" stroke-linecap="round" class="Down"></path><path d="M343 299L342 501" stroke-width="8" stroke="url(#SvgjsLinearGradient1035)" stroke-linecap="round" class="Down"></path><path d="M237 363L236 -25" stroke-width="10" stroke="url(#SvgjsLinearGradient1035)" stroke-linecap="round" class="Down"></path><path d="M922 418L921 777" stroke-width="10" stroke="url(#SvgjsLinearGradient1034)" stroke-linecap="round" class="Up"></path><path d="M551 470L550 161" stroke-width="8" stroke="url(#SvgjsLinearGradient1035)" stroke-linecap="round" class="Down"></path><path d="M1005 489L1004 198" stroke-width="8" stroke="url(#SvgjsLinearGradient1035)" stroke-linecap="round" class="Down"></path><path d="M705 84L704 -118" stroke-width="10" stroke="url(#SvgjsLinearGradient1035)" stroke-linecap="round" class="Down"></path><path d="M343 376L342 752" stroke-width="6" stroke="url(#SvgjsLinearGradient1034)" stroke-linecap="round" class="Up"></path><path d="M1000 230L999 551" stroke-width="6" stroke="url(#SvgjsLinearGradient1035)" stroke-linecap="round" class="Down"></path><path d="M1079 363L1078 633" stroke-width="6" stroke="url(#SvgjsLinearGradient1035)" stroke-linecap="round" class="Down"></path><path d="M50 428L49 211" stroke-width="6" stroke="url(#SvgjsLinearGradient1034)" stroke-linecap="round" class="Up"></path><path d="M306 281L305 112" stroke-width="6" stroke="url(#SvgjsLinearGradient1034)" stroke-linecap="round" class="Up"></path><path d="M1071 322L1070 587" stroke-width="10" stroke="url(#SvgjsLinearGradient1035)" stroke-linecap="round" class="Down"></path><path d="M870 180L869 -6" stroke-width="8" stroke="url(#SvgjsLinearGradient1035)" stroke-linecap="round" class="Down"></path><path d="M385 211L384 3" stroke-width="6" stroke="url(#SvgjsLinearGradient1034)" stroke-linecap="round" class="Up"></path><path d="M255 139L254 -64" stroke-width="6" stroke="url(#SvgjsLinearGradient1035)" stroke-linecap="round" class="Down"></path><path d="M11 136L10 387" stroke-width="10" stroke="url(#SvgjsLinearGradient1035)" stroke-linecap="round" class="Down"></path><path d="M492 284L491 71" stroke-width="10" stroke="url(#SvgjsLinearGradient1035)" stroke-linecap="round" class="Down"></path><path d="M1385 313L1384 -2" stroke-width="8" stroke="url(#SvgjsLinearGradient1034)" stroke-linecap="round" class="Up"></path><path d="M1165 507L1164 182" stroke-width="6" stroke="url(#SvgjsLinearGradient1034)" stroke-linecap="round" class="Up"></path><path d="M843 281L842 33" stroke-width="6" stroke="url(#SvgjsLinearGradient1034)" stroke-linecap="round" class="Up"></path><path d="M1025 41L1024 443" stroke-width="8" stroke="url(#SvgjsLinearGradient1034)" stroke-linecap="round" class="Up"></path><path d="M782 13L781 -335" stroke-width="8" stroke="url(#SvgjsLinearGradient1034)" stroke-linecap="round" class="Up"></path><path d="M1390 183L1389 559" stroke-width="8" stroke="url(#SvgjsLinearGradient1035)" stroke-linecap="round" class="Down"></path><path d="M1064 17L1063 -274" stroke-width="6" stroke="url(#SvgjsLinearGradient1034)" stroke-linecap="round" class="Up"></path><path d="M313 429L312 269" stroke-width="6" stroke="url(#SvgjsLinearGradient1034)" stroke-linecap="round" class="Up"></path><path d="M320 56L319 371" stroke-width="6" stroke="url(#SvgjsLinearGradient1034)" stroke-linecap="round" class="Up"></path><path d="M184 291L183 508" stroke-width="10" stroke="url(#SvgjsLinearGradient1034)" stroke-linecap="round" class="Up"></path></g><defs><mask id="SvgjsMask1033"><rect width="1440" height="560" fill="#ffffff"></rect></mask><linearGradient x1="0%" y1="100%" x2="0%" y2="0%" id="SvgjsLinearGradient1034"><stop stop-color="rgba(28, 83, 142, 0)" offset="0"></stop><stop stop-color="#1c538e" offset="1"></stop></linearGradient><linearGradient x1="0%" y1="0%" x2="0%" y2="100%" id="SvgjsLinearGradient1035"><stop stop-color="rgba(28, 83, 142, 0)" offset="0"></stop><stop stop-color="#1c538e" offset="1"></stop></linearGradient></defs></svg>