<svg xmlns="http://www.w3.org/2000/svg" version="1.1" xmlns:xlink="http://www.w3.org/1999/xlink" xmlns:svgjs="http://svgjs.com/svgjs" width="1440" height="600" preserveAspectRatio="none" viewBox="0 0 1440 600"><g mask="url(&quot;#SvgjsMask1093&quot;)" fill="none"><rect width="1440" height="600" x="0" y="0" fill="#0e2a47"></rect><path d="M-41.16 377.94L-41.16 377.94" stroke="#132e65" stroke-width="1.5"></path><path d="M-41.16 377.94L53.58 371.62" stroke="#132e65" stroke-width="1.5"></path><path d="M-41.16 377.94L-79.67 541.3" stroke="#132e65" stroke-width="1.5"></path><path d="M-41.16 377.94L103.8 516.87" stroke="#132e65" stroke-width="1.5"></path><path d="M-79.67 541.3L-79.67 541.3" stroke="#132e65" stroke-width="1.5"></path><path d="M-79.67 541.3L-60.71 655.87" stroke="#132e65" stroke-width="1.5"></path><path d="M-79.67 541.3L103.8 516.87" stroke="#132e65" stroke-width="1.5"></path><path d="M-60.71 655.87L-60.71 655.87" stroke="#132e65" stroke-width="1.5"></path><path d="M-60.71 655.87L95.13 652.73" stroke="#132e65" stroke-width="1.5"></path><path d="M-60.71 655.87L103.8 516.87" stroke="#132e65" stroke-width="1.5"></path><path d="M-60.71 655.87L-41.16 377.94" stroke="#132e65" stroke-width="1.5"></path><path d="M-60.71 655.87L240.87 656.24" stroke="#132e65" stroke-width="1.5"></path><path d="M53.58 371.62L53.58 371.62" stroke="#132e65" stroke-width="1.5"></path><path d="M53.58 371.62L204.89 383.75" stroke="#132e65" stroke-width="1.5"></path><path d="M53.58 371.62L103.8 516.87" stroke="#132e65" stroke-width="1.5"></path><path d="M103.8 516.87L103.8 516.87" stroke="#132e65" stroke-width="1.5"></path><path d="M103.8 516.87L231.78 523.92" stroke="#132e65" stroke-width="1.5"></path><path d="M103.8 516.87L95.13 652.73" stroke="#132e65" stroke-width="1.5"></path><path d="M103.8 516.87L204.89 383.75" stroke="#132e65" stroke-width="1.5"></path><path d="M95.13 652.73L95.13 652.73" stroke="#132e65" stroke-width="1.5"></path><path d="M95.13 652.73L240.87 656.24" stroke="#132e65" stroke-width="1.5"></path><path d="M95.13 652.73L231.78 523.92" stroke="#132e65" stroke-width="1.5"></path><path d="M95.13 652.73L-79.67 541.3" stroke="#132e65" stroke-width="1.5"></path><path d="M204.89 383.75L204.89 383.75" stroke="#132e65" stroke-width="1.5"></path><path d="M204.89 383.75L231.78 523.92" stroke="#132e65" stroke-width="1.5"></path><path d="M204.89 383.75L353.41 393.44" stroke="#132e65" stroke-width="1.5"></path><path d="M231.78 523.92L231.78 523.92" stroke="#132e65" stroke-width="1.5"></path><path d="M231.78 523.92L240.87 656.24" stroke="#132e65" stroke-width="1.5"></path><path d="M240.87 656.24L240.87 656.24" stroke="#132e65" stroke-width="1.5"></path><path d="M240.87 656.24L392.34 663.41" stroke="#132e65" stroke-width="1.5"></path><path d="M353.41 393.44L353.41 393.44" stroke="#132e65" stroke-width="1.5"></path><path d="M353.41 393.44L377.66 491.96" stroke="#132e65" stroke-width="1.5"></path><path d="M377.66 491.96L377.66 491.96" stroke="#132e65" stroke-width="1.5"></path><path d="M377.66 491.96L231.78 523.92" stroke="#132e65" stroke-width="1.5"></path><path d="M377.66 491.96L528.96 412.34" stroke="#132e65" stroke-width="1.5"></path><path d="M377.66 491.96L392.34 663.41" stroke="#132e65" stroke-width="1.5"></path><path d="M392.34 663.41L392.34 663.41" stroke="#132e65" stroke-width="1.5"></path><path d="M392.34 663.41L559.74 661.75" stroke="#132e65" stroke-width="1.5"></path><path d="M528.96 412.34L528.96 412.34" stroke="#132e65" stroke-width="1.5"></path><path d="M528.96 412.34L645.97 523.48" stroke="#132e65" stroke-width="1.5"></path><path d="M528.96 412.34L697.81 364.17" stroke="#132e65" stroke-width="1.5"></path><path d="M528.96 412.34L353.41 393.44" stroke="#132e65" stroke-width="1.5"></path><path d="M559.74 661.75L559.74 661.75" stroke="#132e65" stroke-width="1.5"></path><path d="M559.74 661.75L640.89 657.86" stroke="#132e65" stroke-width="1.5"></path><path d="M559.74 661.75L645.97 523.48" stroke="#132e65" stroke-width="1.5"></path><path d="M697.81 364.17L697.81 364.17" stroke="#132e65" stroke-width="1.5"></path><path d="M697.81 364.17L645.97 523.48" stroke="#132e65" stroke-width="1.5"></path><path d="M645.97 523.48L645.97 523.48" stroke="#132e65" stroke-width="1.5"></path><path d="M645.97 523.48L640.89 657.86" stroke="#132e65" stroke-width="1.5"></path><path d="M640.89 657.86L640.89 657.86" stroke="#132e65" stroke-width="1.5"></path><path d="M640.89 657.86L820.61 652.95" stroke="#132e65" stroke-width="1.5"></path><path d="M640.89 657.86L824.42 555.87" stroke="#132e65" stroke-width="1.5"></path><path d="M640.89 657.86L392.34 663.41" stroke="#132e65" stroke-width="1.5"></path><path d="M861.67 214.24L861.67 214.24" stroke="#132e65" stroke-width="1.5"></path><path d="M861.67 214.24L963.03 216.76" stroke="#132e65" stroke-width="1.5"></path><path d="M861.67 214.24L995.21 64.86" stroke="#132e65" stroke-width="1.5"></path><path d="M824.42 555.87L824.42 555.87" stroke="#132e65" stroke-width="1.5"></path><path d="M824.42 555.87L820.61 652.95" stroke="#132e65" stroke-width="1.5"></path><path d="M824.42 555.87L958.13 488.71" stroke="#132e65" stroke-width="1.5"></path><path d="M824.42 555.87L645.97 523.48" stroke="#132e65" stroke-width="1.5"></path><path d="M824.42 555.87L959.84 396.12" stroke="#132e65" stroke-width="1.5"></path><path d="M820.61 652.95L820.61 652.95" stroke="#132e65" stroke-width="1.5"></path><path d="M820.61 652.95L997.61 697.73" stroke="#132e65" stroke-width="1.5"></path><path d="M820.61 652.95L958.13 488.71" stroke="#132e65" stroke-width="1.5"></path><path d="M820.61 652.95L645.97 523.48" stroke="#132e65" stroke-width="1.5"></path><path d="M820.61 652.95L559.74 661.75" stroke="#132e65" stroke-width="1.5"></path><path d="M959.93 -94.38L959.93 -94.38" stroke="#132e65" stroke-width="1.5"></path><path d="M959.93 -94.38L1115.08 -70.6" stroke="#132e65" stroke-width="1.5"></path><path d="M959.93 -94.38L995.21 64.86" stroke="#132e65" stroke-width="1.5"></path><path d="M995.21 64.86L995.21 64.86" stroke="#132e65" stroke-width="1.5"></path><path d="M995.21 64.86L1123.67 74.93" stroke="#132e65" stroke-width="1.5"></path><path d="M995.21 64.86L963.03 216.76" stroke="#132e65" stroke-width="1.5"></path><path d="M995.21 64.86L1115.08 -70.6" stroke="#132e65" stroke-width="1.5"></path><path d="M963.03 216.76L963.03 216.76" stroke="#132e65" stroke-width="1.5"></path><path d="M963.03 216.76L1090.47 338.95" stroke="#132e65" stroke-width="1.5"></path><path d="M963.03 216.76L959.84 396.12" stroke="#132e65" stroke-width="1.5"></path><path d="M963.03 216.76L1123.67 74.93" stroke="#132e65" stroke-width="1.5"></path><path d="M963.03 216.76L958.13 488.71" stroke="#132e65" stroke-width="1.5"></path><path d="M959.84 396.12L959.84 396.12" stroke="#132e65" stroke-width="1.5"></path><path d="M959.84 396.12L958.13 488.71" stroke="#132e65" stroke-width="1.5"></path><path d="M959.84 396.12L1090.47 338.95" stroke="#132e65" stroke-width="1.5"></path><path d="M959.84 396.12L861.67 214.24" stroke="#132e65" stroke-width="1.5"></path><path d="M958.13 488.71L958.13 488.71" stroke="#132e65" stroke-width="1.5"></path><path d="M958.13 488.71L1111.91 541.51" stroke="#132e65" stroke-width="1.5"></path><path d="M958.13 488.71L1090.47 338.95" stroke="#132e65" stroke-width="1.5"></path><path d="M958.13 488.71L997.61 697.73" stroke="#132e65" stroke-width="1.5"></path><path d="M997.61 697.73L997.61 697.73" stroke="#132e65" stroke-width="1.5"></path><path d="M997.61 697.73L1090.95 678.14" stroke="#132e65" stroke-width="1.5"></path><path d="M997.61 697.73L1111.91 541.51" stroke="#132e65" stroke-width="1.5"></path><path d="M1115.08 -70.6L1115.08 -70.6" stroke="#132e65" stroke-width="1.5"></path><path d="M1115.08 -70.6L1123.67 74.93" stroke="#132e65" stroke-width="1.5"></path><path d="M1123.67 74.93L1123.67 74.93" stroke="#132e65" stroke-width="1.5"></path><path d="M1123.67 74.93L1277.21 71.11" stroke="#132e65" stroke-width="1.5"></path><path d="M1123.67 74.93L1294.94 -41.83" stroke="#132e65" stroke-width="1.5"></path><path d="M1090.47 338.95L1090.47 338.95" stroke="#132e65" stroke-width="1.5"></path><path d="M1090.47 338.95L1264.99 380.88" stroke="#132e65" stroke-width="1.5"></path><path d="M1111.91 541.51L1111.91 541.51" stroke="#132e65" stroke-width="1.5"></path><path d="M1111.91 541.51L1090.95 678.14" stroke="#132e65" stroke-width="1.5"></path><path d="M1111.91 541.51L1259.76 540.15" stroke="#132e65" stroke-width="1.5"></path><path d="M1090.95 678.14L1090.95 678.14" stroke="#132e65" stroke-width="1.5"></path><path d="M1090.95 678.14L1251.31 662.68" stroke="#132e65" stroke-width="1.5"></path><path d="M1294.94 -41.83L1294.94 -41.83" stroke="#132e65" stroke-width="1.5"></path><path d="M1294.94 -41.83L1402.95 -48.19" stroke="#132e65" stroke-width="1.5"></path><path d="M1294.94 -41.83L1277.21 71.11" stroke="#132e65" stroke-width="1.5"></path><path d="M1294.94 -41.83L1115.08 -70.6" stroke="#132e65" stroke-width="1.5"></path><path d="M1294.94 -41.83L1440.07 104.55" stroke="#132e65" stroke-width="1.5"></path><path d="M1277.21 71.11L1277.21 71.11" stroke="#132e65" stroke-width="1.5"></path><path d="M1277.21 71.11L1440.07 104.55" stroke="#132e65" stroke-width="1.5"></path><path d="M1277.21 71.11L1402.95 -48.19" stroke="#132e65" stroke-width="1.5"></path><path d="M1278.54 251.56L1278.54 251.56" stroke="#132e65" stroke-width="1.5"></path><path d="M1278.54 251.56L1399.43 206.62" stroke="#132e65" stroke-width="1.5"></path><path d="M1278.54 251.56L1264.99 380.88" stroke="#132e65" stroke-width="1.5"></path><path d="M1278.54 251.56L1277.21 71.11" stroke="#132e65" stroke-width="1.5"></path><path d="M1278.54 251.56L1090.47 338.95" stroke="#132e65" stroke-width="1.5"></path><path d="M1278.54 251.56L1428.91 402.55" stroke="#132e65" stroke-width="1.5"></path><path d="M1264.99 380.88L1264.99 380.88" stroke="#132e65" stroke-width="1.5"></path><path d="M1259.76 540.15L1259.76 540.15" stroke="#132e65" stroke-width="1.5"></path><path d="M1259.76 540.15L1251.31 662.68" stroke="#132e65" stroke-width="1.5"></path><path d="M1259.76 540.15L1413.63 499.91" stroke="#132e65" stroke-width="1.5"></path><path d="M1251.31 662.68L1251.31 662.68" stroke="#132e65" stroke-width="1.5"></path><path d="M1251.31 662.68L1111.91 541.51" stroke="#132e65" stroke-width="1.5"></path><path d="M1251.31 662.68L1462.03 643.7" stroke="#132e65" stroke-width="1.5"></path><path d="M1402.95 -48.19L1402.95 -48.19" stroke="#132e65" stroke-width="1.5"></path><path d="M1402.95 -48.19L1440.07 104.55" stroke="#132e65" stroke-width="1.5"></path><path d="M1402.95 -48.19L1568.44 -90.31" stroke="#132e65" stroke-width="1.5"></path><path d="M1440.07 104.55L1440.07 104.55" stroke="#132e65" stroke-width="1.5"></path><path d="M1440.07 104.55L1399.43 206.62" stroke="#132e65" stroke-width="1.5"></path><path d="M1440.07 104.55L1563.87 98.33" stroke="#132e65" stroke-width="1.5"></path><path d="M1440.07 104.55L1602.66 249.43" stroke="#132e65" stroke-width="1.5"></path><path d="M1399.43 206.62L1399.43 206.62" stroke="#132e65" stroke-width="1.5"></path><path d="M1428.91 402.55L1428.91 402.55" stroke="#132e65" stroke-width="1.5"></path><path d="M1428.91 402.55L1413.63 499.91" stroke="#132e65" stroke-width="1.5"></path><path d="M1428.91 402.55L1545.84 367.73" stroke="#132e65" stroke-width="1.5"></path><path d="M1428.91 402.55L1264.99 380.88" stroke="#132e65" stroke-width="1.5"></path><path d="M1428.91 402.55L1399.43 206.62" stroke="#132e65" stroke-width="1.5"></path><path d="M1413.63 499.91L1413.63 499.91" stroke="#132e65" stroke-width="1.5"></path><path d="M1413.63 499.91L1462.03 643.7" stroke="#132e65" stroke-width="1.5"></path><path d="M1413.63 499.91L1588.75 545.44" stroke="#132e65" stroke-width="1.5"></path><path d="M1413.63 499.91L1545.84 367.73" stroke="#132e65" stroke-width="1.5"></path><path d="M1413.63 499.91L1264.99 380.88" stroke="#132e65" stroke-width="1.5"></path><path d="M1462.03 643.7L1462.03 643.7" stroke="#132e65" stroke-width="1.5"></path><path d="M1462.03 643.7L1569.26 667.55" stroke="#132e65" stroke-width="1.5"></path><path d="M1568.44 -90.31L1568.44 -90.31" stroke="#132e65" stroke-width="1.5"></path><path d="M1568.44 -90.31L1563.87 98.33" stroke="#132e65" stroke-width="1.5"></path><path d="M1563.87 98.33L1563.87 98.33" stroke="#132e65" stroke-width="1.5"></path><path d="M1563.87 98.33L1602.66 249.43" stroke="#132e65" stroke-width="1.5"></path><path d="M1602.66 249.43L1602.66 249.43" stroke="#132e65" stroke-width="1.5"></path><path d="M1602.66 249.43L1545.84 367.73" stroke="#132e65" stroke-width="1.5"></path><path d="M1602.66 249.43L1399.43 206.62" stroke="#132e65" stroke-width="1.5"></path><path d="M1545.84 367.73L1545.84 367.73" stroke="#132e65" stroke-width="1.5"></path><path d="M1545.84 367.73L1588.75 545.44" stroke="#132e65" stroke-width="1.5"></path><path d="M1545.84 367.73L1399.43 206.62" stroke="#132e65" stroke-width="1.5"></path><path d="M1545.84 367.73L1563.87 98.33" stroke="#132e65" stroke-width="1.5"></path><path d="M1588.75 545.44L1588.75 545.44" stroke="#132e65" stroke-width="1.5"></path><path d="M1588.75 545.44L1569.26 667.55" stroke="#132e65" stroke-width="1.5"></path><path d="M1588.75 545.44L1462.03 643.7" stroke="#132e65" stroke-width="1.5"></path><path d="M1588.75 545.44L1428.91 402.55" stroke="#132e65" stroke-width="1.5"></path><path d="M1569.26 667.55L1569.26 667.55" stroke="#132e65" stroke-width="1.5"></path><path d="M1569.26 667.55L1413.63 499.91" stroke="#132e65" stroke-width="1.5"></path><path d="M1569.26 667.55L1428.91 402.55" stroke="#132e65" stroke-width="1.5"></path><circle r="5" cx="-41.16" cy="377.94" fill="#132e65"></circle><circle r="5" cx="-79.67" cy="541.3" fill="#132e65"></circle><circle r="5" cx="-60.71" cy="655.87" fill="#132e65"></circle><circle r="5" cx="53.58" cy="371.62" fill="#132e65"></circle><circle r="5" cx="103.8" cy="516.87" fill="#132e65"></circle><circle r="5" cx="95.13" cy="652.73" fill="#132e65"></circle><circle r="5" cx="204.89" cy="383.75" fill="#132e65"></circle><circle r="5" cx="231.78" cy="523.92" fill="#132e65"></circle><circle r="5" cx="240.87" cy="656.24" fill="#132e65"></circle><circle r="5" cx="353.41" cy="393.44" fill="#132e65"></circle><circle r="5" cx="377.66" cy="491.96" fill="#132e65"></circle><circle r="5" cx="392.34" cy="663.41" fill="#132e65"></circle><circle r="5" cx="528.96" cy="412.34" fill="#132e65"></circle><circle r="5" cx="559.74" cy="661.75" fill="#132e65"></circle><circle r="5" cx="697.81" cy="364.17" fill="#132e65"></circle><circle r="5" cx="645.97" cy="523.48" fill="#132e65"></circle><circle r="5" cx="640.89" cy="657.86" fill="#132e65"></circle><circle r="5" cx="861.67" cy="214.24" fill="#132e65"></circle><circle r="5" cx="824.42" cy="555.87" fill="#132e65"></circle><circle r="5" cx="820.61" cy="652.95" fill="#132e65"></circle><circle r="5" cx="959.93" cy="-94.38" fill="#132e65"></circle><circle r="5" cx="995.21" cy="64.86" fill="#132e65"></circle><circle r="5" cx="963.03" cy="216.76" fill="#132e65"></circle><circle r="5" cx="959.84" cy="396.12" fill="#132e65"></circle><circle r="5" cx="958.13" cy="488.71" fill="#132e65"></circle><circle r="5" cx="997.61" cy="697.73" fill="#132e65"></circle><circle r="5" cx="1115.08" cy="-70.6" fill="#132e65"></circle><circle r="5" cx="1123.67" cy="74.93" fill="#132e65"></circle><circle r="5" cx="1090.47" cy="338.95" fill="#132e65"></circle><circle r="5" cx="1111.91" cy="541.51" fill="#132e65"></circle><circle r="5" cx="1090.95" cy="678.14" fill="#132e65"></circle><circle r="5" cx="1294.94" cy="-41.83" fill="#132e65"></circle><circle r="5" cx="1277.21" cy="71.11" fill="#132e65"></circle><circle r="5" cx="1278.54" cy="251.56" fill="#132e65"></circle><circle r="5" cx="1264.99" cy="380.88" fill="#132e65"></circle><circle r="5" cx="1259.76" cy="540.15" fill="#132e65"></circle><circle r="5" cx="1251.31" cy="662.68" fill="#132e65"></circle><circle r="5" cx="1402.95" cy="-48.19" fill="#132e65"></circle><circle r="5" cx="1440.07" cy="104.55" fill="#132e65"></circle><circle r="5" cx="1399.43" cy="206.62" fill="#132e65"></circle><circle r="5" cx="1428.91" cy="402.55" fill="#132e65"></circle><circle r="5" cx="1413.63" cy="499.91" fill="#132e65"></circle><circle r="5" cx="1462.03" cy="643.7" fill="#132e65"></circle><circle r="5" cx="1568.44" cy="-90.31" fill="#132e65"></circle><circle r="5" cx="1563.87" cy="98.33" fill="#132e65"></circle><circle r="5" cx="1602.66" cy="249.43" fill="#132e65"></circle><circle r="5" cx="1545.84" cy="367.73" fill="#132e65"></circle><circle r="5" cx="1588.75" cy="545.44" fill="#132e65"></circle><circle r="5" cx="1569.26" cy="667.55" fill="#132e65"></circle><path d="M-65.09 672.89L-65.09 672.89" stroke="hsl(228.5, 77.2%, 51.5%)" stroke-width="1.5"></path><path d="M-65.09 672.89L-100.61 549.25" stroke="hsl(228.5, 77.2%, 51.5%)" stroke-width="1.5"></path><path d="M-65.09 672.89L77.04 705.3" stroke="hsl(228.5, 77.2%, 51.5%)" stroke-width="1.5"></path><path d="M-65.09 672.89L67.69 552.62" stroke="hsl(228.5, 77.2%, 51.5%)" stroke-width="1.5"></path><path d="M-65.09 672.89L196.8 712.45" stroke="hsl(228.5, 77.2%, 51.5%)" stroke-width="1.5"></path><path d="M-65.09 672.89L386.01 688.23" stroke="hsl(228.5, 77.2%, 51.5%)" stroke-width="1.5"></path><path d="M196.8 712.45L196.8 712.45" stroke="hsl(228.5, 77.2%, 51.5%)" stroke-width="1.5"></path><path d="M196.8 712.45L77.04 705.3" stroke="hsl(228.5, 77.2%, 51.5%)" stroke-width="1.5"></path><path d="M196.8 712.45L386.01 688.23" stroke="hsl(228.5, 77.2%, 51.5%)" stroke-width="1.5"></path><path d="M697.07 712.43L697.07 712.43" stroke="hsl(228.5, 77.2%, 51.5%)" stroke-width="1.5"></path><path d="M697.07 712.43L789.88 673.35" stroke="hsl(228.5, 77.2%, 51.5%)" stroke-width="1.5"></path><path d="M697.07 712.43L507.03 710.11" stroke="hsl(228.5, 77.2%, 51.5%)" stroke-width="1.5"></path><path d="M697.07 712.43L665.67 513.89" stroke="hsl(228.5, 77.2%, 51.5%)" stroke-width="1.5"></path><path d="M697.07 712.43L536.39 531.51" stroke="hsl(228.5, 77.2%, 51.5%)" stroke-width="1.5"></path><path d="M697.07 712.43L833.18 511.7" stroke="hsl(228.5, 77.2%, 51.5%)" stroke-width="1.5"></path><path d="M833.18 511.7L833.18 511.7" stroke="hsl(228.5, 77.2%, 51.5%)" stroke-width="1.5"></path><path d="M833.18 511.7L831.59 379.04" stroke="hsl(228.5, 77.2%, 51.5%)" stroke-width="1.5"></path><path d="M833.18 511.7L789.88 673.35" stroke="hsl(228.5, 77.2%, 51.5%)" stroke-width="1.5"></path><path d="M1005.37 544.32L1005.37 544.32" stroke="hsl(228.5, 77.2%, 51.5%)" stroke-width="1.5"></path><path d="M1005.37 544.32L1106.84 551.18" stroke="hsl(228.5, 77.2%, 51.5%)" stroke-width="1.5"></path><path d="M1005.37 544.32L833.18 511.7" stroke="hsl(228.5, 77.2%, 51.5%)" stroke-width="1.5"></path><path d="M1104.2 189.24L1104.2 189.24" stroke="hsl(228.5, 77.2%, 51.5%)" stroke-width="1.5"></path><path d="M1104.2 189.24L1114.21 343.71" stroke="hsl(228.5, 77.2%, 51.5%)" stroke-width="1.5"></path><path d="M1104.2 189.24L1259.06 64.82" stroke="hsl(228.5, 77.2%, 51.5%)" stroke-width="1.5"></path><path d="M1104.2 189.24L961.25 357.32" stroke="hsl(228.5, 77.2%, 51.5%)" stroke-width="1.5"></path><path d="M1104.2 189.24L1269.42 338.86" stroke="hsl(228.5, 77.2%, 51.5%)" stroke-width="1.5"></path><path d="M1104.2 189.24L1160.49 -74.48" stroke="hsl(228.5, 77.2%, 51.5%)" stroke-width="1.5"></path><path d="M1133.91 697.63L1133.91 697.63" stroke="hsl(228.5, 77.2%, 51.5%)" stroke-width="1.5"></path><path d="M1133.91 697.63L1272.03 709.54" stroke="hsl(228.5, 77.2%, 51.5%)" stroke-width="1.5"></path><path d="M1431.88 537.36L1431.88 537.36" stroke="hsl(228.5, 77.2%, 51.5%)" stroke-width="1.5"></path><path d="M1431.88 537.36L1461.85 641.15" stroke="hsl(228.5, 77.2%, 51.5%)" stroke-width="1.5"></path><path d="M1431.88 537.36L1439.11 392.52" stroke="hsl(228.5, 77.2%, 51.5%)" stroke-width="1.5"></path><path d="M1431.88 537.36L1273.71 502.04" stroke="hsl(228.5, 77.2%, 51.5%)" stroke-width="1.5"></path><path d="M1431.88 537.36L1600.98 522.82" stroke="hsl(228.5, 77.2%, 51.5%)" stroke-width="1.5"></path><path d="M1431.88 537.36L1587.57 663.69" stroke="hsl(228.5, 77.2%, 51.5%)" stroke-width="1.5"></path><path d="M1431.88 537.36L1559.05 378.65" stroke="hsl(228.5, 77.2%, 51.5%)" stroke-width="1.5"></path><path d="M1556.47 216.86L1556.47 216.86" stroke="hsl(228.5, 77.2%, 51.5%)" stroke-width="1.5"></path><path d="M1556.47 216.86L1595.13 111.23" stroke="hsl(228.5, 77.2%, 51.5%)" stroke-width="1.5"></path><path d="M1556.47 216.86L1431.62 245.29" stroke="hsl(228.5, 77.2%, 51.5%)" stroke-width="1.5"></path><path d="M1556.47 216.86L1559.05 378.65" stroke="hsl(228.5, 77.2%, 51.5%)" stroke-width="1.5"></path><path d="M1556.47 216.86L1439.11 392.52" stroke="hsl(228.5, 77.2%, 51.5%)" stroke-width="1.5"></path><path d="M1556.47 216.86L1600.98 522.82" stroke="hsl(228.5, 77.2%, 51.5%)" stroke-width="1.5"></path><path d="M1559.05 378.65L1559.05 378.65" stroke="hsl(228.5, 77.2%, 51.5%)" stroke-width="1.5"></path><path d="M1559.05 378.65L1439.11 392.52" stroke="hsl(228.5, 77.2%, 51.5%)" stroke-width="1.5"></path><path d="M-100.61 549.25L-100.61 549.25" stroke="hsl(228.5, 77.2%, 51.5%)" stroke-width="1.5"></path><path d="M-100.61 549.25L67.69 552.62" stroke="hsl(228.5, 77.2%, 51.5%)" stroke-width="1.5"></path><path d="M-100.61 549.25L77.04 705.3" stroke="hsl(228.5, 77.2%, 51.5%)" stroke-width="1.5"></path><path d="M-100.61 549.25L196.8 712.45" stroke="hsl(228.5, 77.2%, 51.5%)" stroke-width="1.5"></path><path d="M67.69 552.62L67.69 552.62" stroke="hsl(228.5, 77.2%, 51.5%)" stroke-width="1.5"></path><path d="M67.69 552.62L77.04 705.3" stroke="hsl(228.5, 77.2%, 51.5%)" stroke-width="1.5"></path><path d="M67.69 552.62L196.8 712.45" stroke="hsl(228.5, 77.2%, 51.5%)" stroke-width="1.5"></path><path d="M77.04 705.3L77.04 705.3" stroke="hsl(228.5, 77.2%, 51.5%)" stroke-width="1.5"></path><path d="M390.87 505.99L390.87 505.99" stroke="hsl(228.5, 77.2%, 51.5%)" stroke-width="1.5"></path><path d="M390.87 505.99L536.39 531.51" stroke="hsl(228.5, 77.2%, 51.5%)" stroke-width="1.5"></path><path d="M390.87 505.99L386.01 688.23" stroke="hsl(228.5, 77.2%, 51.5%)" stroke-width="1.5"></path><path d="M390.87 505.99L507.03 710.11" stroke="hsl(228.5, 77.2%, 51.5%)" stroke-width="1.5"></path><path d="M390.87 505.99L665.67 513.89" stroke="hsl(228.5, 77.2%, 51.5%)" stroke-width="1.5"></path><path d="M390.87 505.99L196.8 712.45" stroke="hsl(228.5, 77.2%, 51.5%)" stroke-width="1.5"></path><path d="M386.01 688.23L386.01 688.23" stroke="hsl(228.5, 77.2%, 51.5%)" stroke-width="1.5"></path><path d="M386.01 688.23L507.03 710.11" stroke="hsl(228.5, 77.2%, 51.5%)" stroke-width="1.5"></path><path d="M536.39 531.51L536.39 531.51" stroke="hsl(228.5, 77.2%, 51.5%)" stroke-width="1.5"></path><path d="M536.39 531.51L665.67 513.89" stroke="hsl(228.5, 77.2%, 51.5%)" stroke-width="1.5"></path><path d="M507.03 710.11L507.03 710.11" stroke="hsl(228.5, 77.2%, 51.5%)" stroke-width="1.5"></path><path d="M507.03 710.11L536.39 531.51" stroke="hsl(228.5, 77.2%, 51.5%)" stroke-width="1.5"></path><path d="M507.03 710.11L665.67 513.89" stroke="hsl(228.5, 77.2%, 51.5%)" stroke-width="1.5"></path><path d="M507.03 710.11L789.88 673.35" stroke="hsl(228.5, 77.2%, 51.5%)" stroke-width="1.5"></path><path d="M665.67 513.89L665.67 513.89" stroke="hsl(228.5, 77.2%, 51.5%)" stroke-width="1.5"></path><path d="M665.67 513.89L833.18 511.7" stroke="hsl(228.5, 77.2%, 51.5%)" stroke-width="1.5"></path><path d="M831.59 379.04L831.59 379.04" stroke="hsl(228.5, 77.2%, 51.5%)" stroke-width="1.5"></path><path d="M831.59 379.04L961.25 357.32" stroke="hsl(228.5, 77.2%, 51.5%)" stroke-width="1.5"></path><path d="M831.59 379.04L665.67 513.89" stroke="hsl(228.5, 77.2%, 51.5%)" stroke-width="1.5"></path><path d="M831.59 379.04L1005.37 544.32" stroke="hsl(228.5, 77.2%, 51.5%)" stroke-width="1.5"></path><path d="M789.88 673.35L789.88 673.35" stroke="hsl(228.5, 77.2%, 51.5%)" stroke-width="1.5"></path><path d="M789.88 673.35L665.67 513.89" stroke="hsl(228.5, 77.2%, 51.5%)" stroke-width="1.5"></path><path d="M789.88 673.35L1005.37 544.32" stroke="hsl(228.5, 77.2%, 51.5%)" stroke-width="1.5"></path><path d="M961.25 357.32L961.25 357.32" stroke="hsl(228.5, 77.2%, 51.5%)" stroke-width="1.5"></path><path d="M961.25 357.32L1114.21 343.71" stroke="hsl(228.5, 77.2%, 51.5%)" stroke-width="1.5"></path><path d="M961.25 357.32L1005.37 544.32" stroke="hsl(228.5, 77.2%, 51.5%)" stroke-width="1.5"></path><path d="M961.25 357.32L833.18 511.7" stroke="hsl(228.5, 77.2%, 51.5%)" stroke-width="1.5"></path><path d="M961.25 357.32L1106.84 551.18" stroke="hsl(228.5, 77.2%, 51.5%)" stroke-width="1.5"></path><path d="M1160.49 -74.48L1160.49 -74.48" stroke="hsl(228.5, 77.2%, 51.5%)" stroke-width="1.5"></path><path d="M1160.49 -74.48L1259.06 64.82" stroke="hsl(228.5, 77.2%, 51.5%)" stroke-width="1.5"></path><path d="M1160.49 -74.48L1403.91 -80.26" stroke="hsl(228.5, 77.2%, 51.5%)" stroke-width="1.5"></path><path d="M1160.49 -74.48L1431.62 245.29" stroke="hsl(228.5, 77.2%, 51.5%)" stroke-width="1.5"></path><path d="M1160.49 -74.48L1579.07 -101.58" stroke="hsl(228.5, 77.2%, 51.5%)" stroke-width="1.5"></path><path d="M1114.21 343.71L1114.21 343.71" stroke="hsl(228.5, 77.2%, 51.5%)" stroke-width="1.5"></path><path d="M1114.21 343.71L1269.42 338.86" stroke="hsl(228.5, 77.2%, 51.5%)" stroke-width="1.5"></path><path d="M1114.21 343.71L1106.84 551.18" stroke="hsl(228.5, 77.2%, 51.5%)" stroke-width="1.5"></path><path d="M1114.21 343.71L1273.71 502.04" stroke="hsl(228.5, 77.2%, 51.5%)" stroke-width="1.5"></path><path d="M1114.21 343.71L1005.37 544.32" stroke="hsl(228.5, 77.2%, 51.5%)" stroke-width="1.5"></path><path d="M1106.84 551.18L1106.84 551.18" stroke="hsl(228.5, 77.2%, 51.5%)" stroke-width="1.5"></path><path d="M1259.06 64.82L1259.06 64.82" stroke="hsl(228.5, 77.2%, 51.5%)" stroke-width="1.5"></path><path d="M1259.06 64.82L1403.91 -80.26" stroke="hsl(228.5, 77.2%, 51.5%)" stroke-width="1.5"></path><path d="M1269.42 338.86L1269.42 338.86" stroke="hsl(228.5, 77.2%, 51.5%)" stroke-width="1.5"></path><path d="M1269.42 338.86L1273.71 502.04" stroke="hsl(228.5, 77.2%, 51.5%)" stroke-width="1.5"></path><path d="M1273.71 502.04L1273.71 502.04" stroke="hsl(228.5, 77.2%, 51.5%)" stroke-width="1.5"></path><path d="M1273.71 502.04L1106.84 551.18" stroke="hsl(228.5, 77.2%, 51.5%)" stroke-width="1.5"></path><path d="M1272.03 709.54L1272.03 709.54" stroke="hsl(228.5, 77.2%, 51.5%)" stroke-width="1.5"></path><path d="M1272.03 709.54L1461.85 641.15" stroke="hsl(228.5, 77.2%, 51.5%)" stroke-width="1.5"></path><path d="M1272.03 709.54L1273.71 502.04" stroke="hsl(228.5, 77.2%, 51.5%)" stroke-width="1.5"></path><path d="M1272.03 709.54L1106.84 551.18" stroke="hsl(228.5, 77.2%, 51.5%)" stroke-width="1.5"></path><path d="M1403.91 -80.26L1403.91 -80.26" stroke="hsl(228.5, 77.2%, 51.5%)" stroke-width="1.5"></path><path d="M1403.91 -80.26L1579.07 -101.58" stroke="hsl(228.5, 77.2%, 51.5%)" stroke-width="1.5"></path><path d="M1403.91 -80.26L1595.13 111.23" stroke="hsl(228.5, 77.2%, 51.5%)" stroke-width="1.5"></path><path d="M1403.91 -80.26L1431.62 245.29" stroke="hsl(228.5, 77.2%, 51.5%)" stroke-width="1.5"></path><path d="M1403.91 -80.26L1556.47 216.86" stroke="hsl(228.5, 77.2%, 51.5%)" stroke-width="1.5"></path><path d="M1431.62 245.29L1431.62 245.29" stroke="hsl(228.5, 77.2%, 51.5%)" stroke-width="1.5"></path><path d="M1431.62 245.29L1439.11 392.52" stroke="hsl(228.5, 77.2%, 51.5%)" stroke-width="1.5"></path><path d="M1431.62 245.29L1559.05 378.65" stroke="hsl(228.5, 77.2%, 51.5%)" stroke-width="1.5"></path><path d="M1439.11 392.52L1439.11 392.52" stroke="hsl(228.5, 77.2%, 51.5%)" stroke-width="1.5"></path><path d="M1439.11 392.52L1269.42 338.86" stroke="hsl(228.5, 77.2%, 51.5%)" stroke-width="1.5"></path><path d="M1439.11 392.52L1273.71 502.04" stroke="hsl(228.5, 77.2%, 51.5%)" stroke-width="1.5"></path><path d="M1461.85 641.15L1461.85 641.15" stroke="hsl(228.5, 77.2%, 51.5%)" stroke-width="1.5"></path><path d="M1461.85 641.15L1587.57 663.69" stroke="hsl(228.5, 77.2%, 51.5%)" stroke-width="1.5"></path><path d="M1461.85 641.15L1600.98 522.82" stroke="hsl(228.5, 77.2%, 51.5%)" stroke-width="1.5"></path><path d="M1579.07 -101.58L1579.07 -101.58" stroke="hsl(228.5, 77.2%, 51.5%)" stroke-width="1.5"></path><path d="M1579.07 -101.58L1595.13 111.23" stroke="hsl(228.5, 77.2%, 51.5%)" stroke-width="1.5"></path><path d="M1579.07 -101.58L1556.47 216.86" stroke="hsl(228.5, 77.2%, 51.5%)" stroke-width="1.5"></path><path d="M1579.07 -101.58L1259.06 64.82" stroke="hsl(228.5, 77.2%, 51.5%)" stroke-width="1.5"></path><path d="M1579.07 -101.58L1431.62 245.29" stroke="hsl(228.5, 77.2%, 51.5%)" stroke-width="1.5"></path><path d="M1595.13 111.23L1595.13 111.23" stroke="hsl(228.5, 77.2%, 51.5%)" stroke-width="1.5"></path><path d="M1595.13 111.23L1431.62 245.29" stroke="hsl(228.5, 77.2%, 51.5%)" stroke-width="1.5"></path><path d="M1595.13 111.23L1559.05 378.65" stroke="hsl(228.5, 77.2%, 51.5%)" stroke-width="1.5"></path><path d="M1600.98 522.82L1600.98 522.82" stroke="hsl(228.5, 77.2%, 51.5%)" stroke-width="1.5"></path><path d="M1600.98 522.82L1587.57 663.69" stroke="hsl(228.5, 77.2%, 51.5%)" stroke-width="1.5"></path><path d="M1600.98 522.82L1559.05 378.65" stroke="hsl(228.5, 77.2%, 51.5%)" stroke-width="1.5"></path><path d="M1587.57 663.69L1587.57 663.69" stroke="hsl(228.5, 77.2%, 51.5%)" stroke-width="1.5"></path><path d="M1587.57 663.69L1559.05 378.65" stroke="hsl(228.5, 77.2%, 51.5%)" stroke-width="1.5"></path><path d="M1587.57 663.69L1439.11 392.52" stroke="hsl(228.5, 77.2%, 51.5%)" stroke-width="1.5"></path><path d="M1587.57 663.69L1272.03 709.54" stroke="hsl(228.5, 77.2%, 51.5%)" stroke-width="1.5"></path><circle r="25" cx="-65.09" cy="672.89" fill="url(#SvgjsRadialGradient1094)"></circle><circle r="25" cx="196.8" cy="712.45" fill="url(#SvgjsRadialGradient1094)"></circle><circle r="25" cx="697.07" cy="712.43" fill="url(#SvgjsRadialGradient1094)"></circle><circle r="25" cx="833.18" cy="511.7" fill="url(#SvgjsRadialGradient1094)"></circle><circle r="25" cx="1005.37" cy="544.32" fill="url(#SvgjsRadialGradient1094)"></circle><circle r="25" cx="1104.2" cy="189.24" fill="url(#SvgjsRadialGradient1094)"></circle><circle r="25" cx="1133.91" cy="697.63" fill="url(#SvgjsRadialGradient1094)"></circle><circle r="25" cx="1431.88" cy="537.36" fill="url(#SvgjsRadialGradient1094)"></circle><circle r="25" cx="1556.47" cy="216.86" fill="url(#SvgjsRadialGradient1094)"></circle><circle r="25" cx="1559.05" cy="378.65" fill="url(#SvgjsRadialGradient1094)"></circle><circle r="5" cx="-100.61" cy="549.25" fill="#8b9ad9"></circle><circle r="5" cx="67.69" cy="552.62" fill="#8b9ad9"></circle><circle r="5" cx="77.04" cy="705.3" fill="#8b9ad9"></circle><circle r="5" cx="390.87" cy="505.99" fill="#8b9ad9"></circle><circle r="5" cx="386.01" cy="688.23" fill="#8b9ad9"></circle><circle r="5" cx="536.39" cy="531.51" fill="#8b9ad9"></circle><circle r="5" cx="507.03" cy="710.11" fill="#8b9ad9"></circle><circle r="5" cx="665.67" cy="513.89" fill="#8b9ad9"></circle><circle r="5" cx="831.59" cy="379.04" fill="#8b9ad9"></circle><circle r="5" cx="789.88" cy="673.35" fill="#8b9ad9"></circle><circle r="5" cx="961.25" cy="357.32" fill="#8b9ad9"></circle><circle r="5" cx="1160.49" cy="-74.48" fill="#8b9ad9"></circle><circle r="5" cx="1114.21" cy="343.71" fill="#8b9ad9"></circle><circle r="5" cx="1106.84" cy="551.18" fill="#8b9ad9"></circle><circle r="5" cx="1259.06" cy="64.82" fill="#8b9ad9"></circle><circle r="5" cx="1269.42" cy="338.86" fill="#8b9ad9"></circle><circle r="5" cx="1273.71" cy="502.04" fill="#8b9ad9"></circle><circle r="5" cx="1272.03" cy="709.54" fill="#8b9ad9"></circle><circle r="5" cx="1403.91" cy="-80.26" fill="#8b9ad9"></circle><circle r="5" cx="1431.62" cy="245.29" fill="#8b9ad9"></circle><circle r="5" cx="1439.11" cy="392.52" fill="#8b9ad9"></circle><circle r="5" cx="1461.85" cy="641.15" fill="#8b9ad9"></circle><circle r="5" cx="1579.07" cy="-101.58" fill="#8b9ad9"></circle><circle r="5" cx="1595.13" cy="111.23" fill="#8b9ad9"></circle><circle r="5" cx="1600.98" cy="522.82" fill="#8b9ad9"></circle><circle r="5" cx="1587.57" cy="663.69" fill="#8b9ad9"></circle></g><defs><mask id="SvgjsMask1093"><rect width="1440" height="600" fill="#ffffff"></rect></mask><radialGradient id="SvgjsRadialGradient1094"><stop stop-color="#ffffff" offset="0.1"></stop><stop stop-color="#1735b3" offset="0.2"></stop><stop stop-color="rgba(23, 53, 179, 0)" offset="1"></stop></radialGradient></defs></svg>