<svg xmlns="http://www.w3.org/2000/svg" version="1.1" xmlns:xlink="http://www.w3.org/1999/xlink" xmlns:svgjs="http://svgjs.com/svgjs" width="1440" height="600" preserveAspectRatio="none" viewBox="0 0 1440 600"><g mask="url(&quot;#SvgjsMask2068&quot;)" fill="none"><rect width="1440" height="600" x="0" y="0" fill="rgba(12, 56, 101, 1)"></rect><path d="M60 600L660 0L822 0L222 600z" fill="url(#SvgjsLinearGradient2069)"></path><path d="M519.2 600L1119.2 0L1734.2 0L1134.2 600z" fill="url(#SvgjsLinearGradient2069)"></path><path d="M1348 600L748 0L497.5 0L1097.5 600z" fill="url(#SvgjsLinearGradient2070)"></path><path d="M960.8 600L360.79999999999995 0L282.79999999999995 0L882.8 600z" fill="url(#SvgjsLinearGradient2070)"></path><path d="M1019.1818462700404 600L1440 179.1818462700404L1440 600z" fill="url(#SvgjsLinearGradient2069)"></path><path d="M0 600L420.8181537299596 600L 0 179.1818462700404z" fill="url(#SvgjsLinearGradient2070)"></path></g><defs><mask id="SvgjsMask2068"><rect width="1440" height="600" fill="#ffffff"></rect></mask><linearGradient x1="0%" y1="100%" x2="100%" y2="0%" id="SvgjsLinearGradient2069"><stop stop-color="rgba(15, 70, 185, 0.81)" offset="0"></stop><stop stop-opacity="0" stop-color="rgba(15, 70, 185, 0.81)" offset="0.66"></stop></linearGradient><linearGradient x1="100%" y1="100%" x2="0%" y2="0%" id="SvgjsLinearGradient2070"><stop stop-color="rgba(15, 70, 185, 0.81)" offset="0"></stop><stop stop-opacity="0" stop-color="rgba(15, 70, 185, 0.81)" offset="0.66"></stop></linearGradient></defs></svg>