<svg xmlns="http://www.w3.org/2000/svg" version="1.1" xmlns:xlink="http://www.w3.org/1999/xlink" xmlns:svgjs="http://svgjs.com/svgjs" width="1440" height="600" preserveAspectRatio="none" viewBox="0 0 1440 600"><g mask="url(&quot;#SvgjsMask1126&quot;)" fill="none"><rect width="1440" height="600" x="0" y="0" fill="url(#SvgjsLinearGradient1127)"></rect><path d="M1440 0L1207.93 0L1440 14.04z" fill="rgba(255, 255, 255, .1)"></path><path d="M1207.93 0L1440 14.04L1440 84.66L999.6400000000001 0z" fill="rgba(255, 255, 255, .075)"></path><path d="M999.64 0L1440 84.66L1440 325.62L918.13 0z" fill="rgba(255, 255, 255, .05)"></path><path d="M918.13 0L1440 325.62L1440 413.41L673.1 0z" fill="rgba(255, 255, 255, .025)"></path><path d="M0 600L717.88 600L0 378.12z" fill="rgba(0, 0, 0, .1)"></path><path d="M0 378.12L717.88 600L903.0699999999999 600L0 354.98z" fill="rgba(0, 0, 0, .075)"></path><path d="M0 354.98L903.0699999999999 600L957.4599999999999 600L0 352.97z" fill="rgba(0, 0, 0, .05)"></path><path d="M0 352.97L957.4599999999999 600L1084.4199999999998 600L0 247.67000000000002z" fill="rgba(0, 0, 0, .025)"></path></g><defs><mask id="SvgjsMask1126"><rect width="1440" height="600" fill="#ffffff"></rect></mask><linearGradient x1="14.58%" y1="-35%" x2="85.42%" y2="135%" gradientUnits="userSpaceOnUse" id="SvgjsLinearGradient1127"><stop stop-color="#0e2a47" offset="0"></stop><stop stop-color="rgba(0, 95, 218, 1)" offset="1"></stop></linearGradient></defs></svg>