<svg xmlns="http://www.w3.org/2000/svg" version="1.1" xmlns:xlink="http://www.w3.org/1999/xlink" xmlns:svgjs="http://svgjs.com/svgjs" width="1440" height="600" preserveAspectRatio="none" viewBox="0 0 1440 600"><g mask="url(&quot;#SvgjsMask1337&quot;)" fill="none"><rect width="1440" height="600" x="0" y="0" fill="#0e2a47"></rect><g transform="translate(0, 0)" stroke-linecap="round" stroke="url(#SvgjsLinearGradient1338)"><path d="M412.5 291.135 L412.5 308.865" stroke-width="30.75"></path><path d="M453.5 187.345 L453.5 248.845" stroke-width="30.75"></path><path d="M453.5 294.97 L453.5 325.72" stroke-width="30.75"></path><path d="M453.5 371.845 L453.5 412.645" stroke-width="30.75"></path><path d="M494.5 229.175 L494.5 259.925" stroke-width="30.75"></path><path d="M494.5 306.05 L494.5 370.825" stroke-width="30.75"></path><path d="M535.5 203.275 L535.5 234.025" stroke-width="30.75"></path><path d="M535.5 280.15 L535.5 310.9" stroke-width="30.75"></path><path d="M535.5 357.025 L535.5 396.725" stroke-width="30.75"></path><path d="M576.5 241.195 L576.5 358.805" stroke-width="30.75"></path><path d="M617.5 197.935 L617.5 402.065" stroke-width="30.75"></path><path d="M658.5 257.375 L658.5 342.625" stroke-width="30.75"></path><path d="M699.5 221.765 L699.5 378.235" stroke-width="30.75"></path><path d="M740.5 239.705 L740.5 360.295" stroke-width="30.75"></path><path d="M781.5 300.085 L781.5 299.915" stroke-width="30.75"></path><path d="M822.5 246.365 L822.5 353.635" stroke-width="30.75"></path><path d="M863.5 216.035 L863.5 246.785" stroke-width="30.75"></path><path d="M863.5 292.90999999999997 L863.5 383.975" stroke-width="30.75"></path><path d="M904.5 199.585 L904.5 400.415" stroke-width="30.75"></path><path d="M945.5 273.175 L945.5 326.825" stroke-width="30.75"></path><path d="M986.5 287.645 L986.5 312.355" stroke-width="30.75"></path><path d="M1027.5 189.505 L1027.5 220.255" stroke-width="30.75"></path><path d="M1027.5 266.38 L1027.5 297.13" stroke-width="30.75"></path><path d="M1027.5 343.255 L1027.5 410.495" stroke-width="30.75"></path></g></g><defs><mask id="SvgjsMask1337"><rect width="1440" height="600" fill="#ffffff"></rect></mask><linearGradient x1="381.6" y1="300" x2="1058.4" y2="300" gradientUnits="userSpaceOnUse" id="SvgjsLinearGradient1338"><stop stop-color="#3a7cc3" offset="0"></stop><stop stop-color="rgba(208, 221, 17, 1)" offset="1"></stop></linearGradient></defs></svg>